<svg id="Layer_1" data-name="Layer 1" xmlns="http://www.w3.org/2000/svg" viewBox="0 0 157.87 51.92"><defs><style>.cls-1{fill:#2d2d2d;}</style></defs><title>SNOW logo_black</title><path class="cls-1" d="M27.1,42.8c1-.4,1.7.2,1.5,1.3L26.4,57.4c-.2,1.1-.7,1.1-1.1.1l-2.2-5.3a4.43,4.43,0,0,0-2.7-2.3l-5.8-1.3c-1.1-.2-1.1-.7-.1-1.1l12.6-4.7c1-.4,1.7.2,1.5,1.3L26.4,57.4c-.2,1.1-.7,1.1-1.1.1l-2.1-5.2A4.43,4.43,0,0,0,20.5,50l-5.9-1.3c-1.1-.2-1.1-.7-.1-1.1Z" transform="translate(-10.43 -10.24)"/><path class="cls-1" d="M40.4,31.1c-.9.4-1.5-.1-1.4-1l1.2-11.9c.1-1,.5-1,1-.2l2.3,4.6A4,4,0,0,0,46,24.5l5.3.8c1,.1,1,.6.1,1l-11,4.8c-.9.4-1.5-.1-1.4-1l1.2-11.9c.1-1,.5-1,1-.2l2.2,4.5a4,4,0,0,0,2.5,1.9l5.4.9c1,.2,1,.6.1,1Z" transform="translate(-10.43 -10.24)"/><path class="cls-1" d="M35.4,46.7c.2-1.2,1.1-1.5,2-.8L48.8,55c.9.7.7,1.2-.5,1.1l-6.1-.7a4.82,4.82,0,0,0-3.6,1.4l-4.3,4.8c-.8.9-1.3.7-1.1-.5l2.2-14.4c.2-1.2,1.1-1.5,2-.8L48.8,55c.9.7.7,1.2-.5,1.1l-6-.7a5.15,5.15,0,0,0-3.6,1.3l-4.4,4.9c-.8.9-1.3.6-1.1-.5Z" transform="translate(-10.43 -10.24)"/><path class="cls-1" d="M31.9,30.2c-.2,1.5-1.4,2-2.6,1L14.6,19.4c-1.2-1-.9-1.6.6-1.4l8,.9a5.75,5.75,0,0,0,4.6-1.8l5.6-6.2c1-1.1,1.7-.8,1.4.7L31.9,30.2c-.2,1.5-1.4,2-2.6,1L14.6,19.4c-1.2-1-.9-1.6.6-1.4L23,19a6,6,0,0,0,4.6-1.7L33.3,11c1-1.1,1.7-.8,1.4.7Z" transform="translate(-10.43 -10.24)"/><path class="cls-1" d="M22.5,35.3c.7.6.6,1.4-.3,1.7L11.3,41.2c-.9.3-1.1,0-.6-.8l3-4a3.58,3.58,0,0,0,.5-3l-1.6-4.9c-.3-.9.1-1.2.8-.6l9.1,7.4c.7.6.6,1.4-.3,1.7L11.3,41.2c-.9.3-1.1,0-.6-.8l3-3.9a3.58,3.58,0,0,0,.5-3l-1.6-5.1c-.3-.9.1-1.2.8-.6Z" transform="translate(-10.43 -10.24)"/><path class="cls-1" d="M43,40c-.7-.6-.6-1.3.3-1.6L54,34.6c.9-.3,1.1,0,.5.8l-3,3.8a3.7,3.7,0,0,0-.6,2.9l1.4,4.8c.3.9-.1,1.1-.8.5L43,40c-.7-.6-.6-1.3.3-1.6L54,34.6c.9-.3,1.1,0,.5.8l-3,3.7a3.34,3.34,0,0,0-.6,2.9l1.4,4.9c.3.9-.1,1.1-.8.5Z" transform="translate(-10.43 -10.24)"/><path class="cls-1" d="M82.7,43.3a7.74,7.74,0,0,1-1.1,4A7.33,7.33,0,0,1,78.3,50a12.07,12.07,0,0,1-5.2,1,11.44,11.44,0,0,1-5.9-1.4A7.46,7.46,0,0,1,64.5,47a5.72,5.72,0,0,1-1-3.2,2,2,0,0,1,.6-1.5,2.11,2.11,0,0,1,1.6-.6,1.9,1.9,0,0,1,1.3.5,2.75,2.75,0,0,1,.9,1.5,6.74,6.74,0,0,0,1,1.9,6.39,6.39,0,0,0,1.5,1.3,6,6,0,0,0,2.6.5,5.4,5.4,0,0,0,3.5-1,3.11,3.11,0,0,0,1.4-2.5,2.72,2.72,0,0,0-.7-2,5.16,5.16,0,0,0-1.9-1.2,27,27,0,0,0-3.1-.8,28.68,28.68,0,0,1-4.4-1.4A6.89,6.89,0,0,1,65,36.3a5.58,5.58,0,0,1-1-3.5,6.63,6.63,0,0,1,1.1-3.6,7.32,7.32,0,0,1,3.2-2.4,12.3,12.3,0,0,1,4.9-.8,11.42,11.42,0,0,1,3.9.6,8.65,8.65,0,0,1,2.7,1.5A9,9,0,0,1,81.4,30a4.92,4.92,0,0,1,.5,2,2.45,2.45,0,0,1-.6,1.6,1.8,1.8,0,0,1-1.5.7,1.7,1.7,0,0,1-1.3-.4,6.38,6.38,0,0,1-1-1.4,5.84,5.84,0,0,0-1.6-2.1,4.68,4.68,0,0,0-3-.8,5.69,5.69,0,0,0-3.1.8,2.43,2.43,0,0,0-1.2,2,2,2,0,0,0,.4,1.3,2.44,2.44,0,0,0,1.1.9,4.24,4.24,0,0,0,1.4.6c.5.1,1.3.4,2.3.6a27.35,27.35,0,0,1,3.7,1.1,14.61,14.61,0,0,1,2.8,1.4,5.74,5.74,0,0,1,2.4,5Z" transform="translate(-10.43 -10.24)"/><path class="cls-1" d="M93.3,28.9l9.4,14.3V28.7a3.28,3.28,0,0,1,.6-2.1,1.86,1.86,0,0,1,1.6-.7,2.06,2.06,0,0,1,1.7.7,3.28,3.28,0,0,1,.6,2.1V47.8c0,2.1-.9,3.2-2.6,3.2a5,5,0,0,1-1.2-.2,2.07,2.07,0,0,1-1-.6,9,9,0,0,1-.9-1c-.3-.4-.5-.7-.8-1.1L91.5,34V48.2a3.28,3.28,0,0,1-.6,2.1,2.41,2.41,0,0,1-3.4,0,3.28,3.28,0,0,1-.6-2.1V29.5a5,5,0,0,1,.3-1.9,2.94,2.94,0,0,1,1-1.2,3,3,0,0,1,1.6-.5,3.59,3.59,0,0,1,1.1.2,1.56,1.56,0,0,1,.8.6,7.05,7.05,0,0,1,.7.9C92.8,28.1,93,28.5,93.3,28.9Z" transform="translate(-10.43 -10.24)"/><path class="cls-1" d="M123.3,25.9a13.28,13.28,0,0,1,6.5,1.5,10,10,0,0,1,4.1,4.3,15.26,15.26,0,0,1,1.4,6.6,16,16,0,0,1-.8,5.1,11.33,11.33,0,0,1-2.3,4,10.79,10.79,0,0,1-3.7,2.6,14.9,14.9,0,0,1-10.2,0,9.91,9.91,0,0,1-3.7-2.6,11.33,11.33,0,0,1-2.3-4,17,17,0,0,1-.8-5.1,16,16,0,0,1,.8-5.1,10.51,10.51,0,0,1,2.3-4,9.7,9.7,0,0,1,3.7-2.5A15.42,15.42,0,0,1,123.3,25.9Zm7,12.5a10.78,10.78,0,0,0-.9-4.6,6.76,6.76,0,0,0-2.5-3,6.63,6.63,0,0,0-3.7-1,6,6,0,0,0-2.7.6,5.6,5.6,0,0,0-2.1,1.6,6.91,6.91,0,0,0-1.4,2.7,13.94,13.94,0,0,0,0,7.4,6.9,6.9,0,0,0,1.5,2.8,5.67,5.67,0,0,0,2.2,1.6,5.92,5.92,0,0,0,2.7.5,7,7,0,0,0,3.5-.9,6,6,0,0,0,2.5-2.9A13.24,13.24,0,0,0,130.3,38.4Z" transform="translate(-10.43 -10.24)"/><path class="cls-1" d="M157,46.8l-3.9-14.5-4,14.5c-.3,1.1-.6,1.9-.7,2.4a3.05,3.05,0,0,1-1,1.3,2.79,2.79,0,0,1-1.8.6,3.34,3.34,0,0,1-1.5-.3,2.4,2.4,0,0,1-1-1,11.64,11.64,0,0,1-.6-1.5,12.44,12.44,0,0,1-.4-1.6l-4-16.3a13.06,13.06,0,0,1-.4-2.2,2,2,0,0,1,.7-1.6A2.27,2.27,0,0,1,140,26a1.81,1.81,0,0,1,1.8.9,9.17,9.17,0,0,1,.8,2.5l3.2,14.2,3.6-13.2c.3-1,.5-1.8.7-2.3a4.51,4.51,0,0,1,1-1.4,2.88,2.88,0,0,1,1.9-.6,2.71,2.71,0,0,1,1.9.6,3.05,3.05,0,0,1,1,1.3c.2.5.4,1.3.7,2.3l3.6,13.2,3.2-14.2c.2-.7.3-1.3.4-1.7a2.59,2.59,0,0,1,.7-1.1A2.07,2.07,0,0,1,166,26a2.27,2.27,0,0,1,1.6.6,2.36,2.36,0,0,1,.7,1.6,7.87,7.87,0,0,1-.4,2.2l-4,16.3c-.3,1.1-.5,1.9-.7,2.4a3,3,0,0,1-.9,1.3,2.44,2.44,0,0,1-1.8.6,2.61,2.61,0,0,1-1.8-.6,2.22,2.22,0,0,1-.9-1.3A14,14,0,0,1,157,46.8Z" transform="translate(-10.43 -10.24)"/></svg>