<svg id="Layer_1" data-name="Layer 1" xmlns="http://www.w3.org/2000/svg" viewBox="0 0 157.96 51.88"><defs><style>.cls-1{fill:#cccbca;}.cls-2{fill:#a09f9f;}.cls-3{fill:#2d2d2d;}</style></defs><title>SNOW logo_greyscale</title><path class="cls-1" d="M27.05,42.77c1-.38,1.71.19,1.54,1.26L26.4,57.3c-.18,1.08-.67,1.14-1.09.13L23.1,52.16a4.28,4.28,0,0,0-2.71-2.26l-5.84-1.26c-1.06-.23-1.1-.74-.08-1.13l12.58-4.74c1-.38,1.71.19,1.54,1.26L26.4,57.3c-.18,1.08-.66,1.14-1.08.13l-2.13-5.18A4.26,4.26,0,0,0,20.5,50l-5.95-1.33c-1.07-.24-1.1-.75-.08-1.14Z" transform="translate(-10.39 -10.21)"/><path class="cls-2" d="M40.39,31.09c-.89.4-1.54-.07-1.44-1l1.21-11.93c.1-1,.54-1.05,1-.18l2.26,4.58a3.8,3.8,0,0,0,2.54,1.85l5.26.81c1,.15,1,.6.14,1L40.39,31.09c-.89.4-1.54-.07-1.44-1l1.21-11.93c.1-1,.53-1.05,1-.17l2.18,4.49a3.83,3.83,0,0,0,2.53,1.87l5.36.86c1,.15,1,.61.14,1Z" transform="translate(-10.39 -10.21)"/><path class="cls-2" d="M35.43,46.69a1.14,1.14,0,0,1,2-.78L48.78,55c.92.74.71,1.23-.46,1.1l-6.14-.7a4.65,4.65,0,0,0-3.55,1.36l-4.27,4.83c-.78.88-1.28.65-1.1-.52l2.17-14.35a1.14,1.14,0,0,1,2-.78L48.78,55c.92.74.71,1.22-.46,1.08l-6-.73a4.65,4.65,0,0,0-3.57,1.35l-4.39,4.9c-.79.88-1.29.64-1.11-.53Z" transform="translate(-10.39 -10.21)"/><path class="cls-1" d="M31.88,30.18c-.23,1.51-1.4,2-2.6,1L14.61,19.4c-1.19-1-.92-1.6.6-1.42l8,.93a6,6,0,0,0,4.61-1.76l5.55-6.24c1-1.14,1.66-.84,1.43.67l-2.87,18.6c-.23,1.51-1.4,2-2.6,1L14.61,19.4c-1.19-1-.93-1.59.59-1.4L23,19a6,6,0,0,0,4.62-1.72l5.71-6.34c1-1.14,1.67-.83,1.44.68Z" transform="translate(-10.39 -10.21)"/><path class="cls-2" d="M22.47,35.29A.91.91,0,0,1,22.2,37L11.27,41.17c-.89.34-1.15,0-.58-.76l3-4a3.73,3.73,0,0,0,.5-3l-1.6-4.94c-.3-.9.07-1.15.8-.55l9.08,7.38A.91.91,0,0,1,22.2,37L11.27,41.17c-.89.34-1.14,0-.57-.75l3-3.88a3.75,3.75,0,0,0,.53-3l-1.61-5.05c-.29-.91.08-1.16.81-.56Z" transform="translate(-10.39 -10.21)"/><path class="cls-1" d="M43,40a.89.89,0,0,1,.32-1.65L54,34.64c.88-.31,1.12,0,.54.75l-3,3.76a3.65,3.65,0,0,0-.59,2.92l1.41,4.84c.25.88-.11,1.11-.8.51L43,40a.89.89,0,0,1,.32-1.65L54,34.64c.88-.31,1.11,0,.53.75l-3,3.65a3.66,3.66,0,0,0-.6,2.92l1.4,4.94c.25.89-.12,1.12-.81.52Z" transform="translate(-10.39 -10.21)"/><path class="cls-3" d="M82.71,43.31a7.15,7.15,0,0,1-1.13,3.95A7.56,7.56,0,0,1,78.27,50a12.47,12.47,0,0,1-5.18,1,11.58,11.58,0,0,1-5.92-1.36A7.78,7.78,0,0,1,64.48,47a5.91,5.91,0,0,1-1-3.17,2.15,2.15,0,0,1,.62-1.53,2.12,2.12,0,0,1,1.58-.63A1.85,1.85,0,0,1,67,42.2a3.83,3.83,0,0,1,.92,1.47,10,10,0,0,0,1,1.94,4.08,4.08,0,0,0,1.51,1.28A5.56,5.56,0,0,0,73,47.4a5.76,5.76,0,0,0,3.54-1,3.08,3.08,0,0,0,1.37-2.54,2.69,2.69,0,0,0-.74-2,4.8,4.8,0,0,0-1.9-1.15c-.78-.26-1.82-.55-3.12-.84a23.33,23.33,0,0,1-4.37-1.43,7,7,0,0,1-2.8-2.24,5.84,5.84,0,0,1-1-3.51A6.07,6.07,0,0,1,65,29.16a6.87,6.87,0,0,1,3.16-2.39A12.88,12.88,0,0,1,73,25.93a12.06,12.06,0,0,1,3.87.56A8.1,8.1,0,0,1,79.59,28a6.21,6.21,0,0,1,1.57,1.92,4.47,4.47,0,0,1,.49,2A2.29,2.29,0,0,1,81,33.43a2,2,0,0,1-1.54.7,1.78,1.78,0,0,1-1.28-.42,5.39,5.39,0,0,1-.95-1.38,6.36,6.36,0,0,0-1.59-2.14,4.67,4.67,0,0,0-3-.77,5.21,5.21,0,0,0-3.07.83,2.45,2.45,0,0,0-1.16,2,2,2,0,0,0,.39,1.25,3.35,3.35,0,0,0,1.1.91,7.38,7.38,0,0,0,1.4.6c.48.14,1.26.35,2.35.62a38.38,38.38,0,0,1,3.71,1.06,11.5,11.5,0,0,1,2.83,1.41,5.81,5.81,0,0,1,1.82,2.09A6.77,6.77,0,0,1,82.71,43.31Z" transform="translate(-10.39 -10.21)"/><path class="cls-3" d="M93.28,28.88l9.44,14.28V28.74a3.2,3.2,0,0,1,.6-2.11,2.09,2.09,0,0,1,1.64-.7,2.11,2.11,0,0,1,1.66.7,3.14,3.14,0,0,1,.62,2.11V47.81c0,2.13-.89,3.19-2.65,3.19a3.42,3.42,0,0,1-1.19-.19,3,3,0,0,1-1-.61,5.34,5.34,0,0,1-.86-1c-.27-.37-.53-.75-.8-1.13L91.54,34V48.19a3.05,3.05,0,0,1-.64,2.1,2.15,2.15,0,0,1-1.66.71,2.08,2.08,0,0,1-1.66-.72,3.09,3.09,0,0,1-.64-2.09V29.49a5.17,5.17,0,0,1,.27-1.87,2.72,2.72,0,0,1,1-1.22,2.88,2.88,0,0,1,1.57-.47,2.64,2.64,0,0,1,1.14.22,2.61,2.61,0,0,1,.82.58,5.6,5.6,0,0,1,.73.94C92.76,28.05,93,28.46,93.28,28.88Z" transform="translate(-10.39 -10.21)"/><path class="cls-3" d="M123.27,25.93a13,13,0,0,1,6.48,1.53,10,10,0,0,1,4.09,4.35,14.91,14.91,0,0,1,1.39,6.62,16.08,16.08,0,0,1-.76,5.11,11.24,11.24,0,0,1-2.28,4,10.11,10.11,0,0,1-3.74,2.58,13.62,13.62,0,0,1-5.08.89,13.42,13.42,0,0,1-5.09-.92,10.06,10.06,0,0,1-3.75-2.58,11.18,11.18,0,0,1-2.28-4,16.34,16.34,0,0,1-.77-5.08,15.59,15.59,0,0,1,.81-5.13,11.1,11.1,0,0,1,2.32-4,10.18,10.18,0,0,1,3.7-2.5A13.33,13.33,0,0,1,123.27,25.93Zm7,12.47a11.26,11.26,0,0,0-.86-4.61,6.4,6.4,0,0,0-2.45-3,6.85,6.85,0,0,0-3.67-1,6.65,6.65,0,0,0-2.72.56A6.06,6.06,0,0,0,118.4,32,7.84,7.84,0,0,0,117,34.7a12.16,12.16,0,0,0-.52,3.7,12.36,12.36,0,0,0,.52,3.73,7.82,7.82,0,0,0,1.47,2.78,6.25,6.25,0,0,0,2.19,1.64,6.87,6.87,0,0,0,6.16-.39,6.52,6.52,0,0,0,2.52-2.92A11.26,11.26,0,0,0,130.25,38.4Z" transform="translate(-10.39 -10.21)"/><path class="cls-3" d="M157,46.77l-3.92-14.54-4,14.54c-.31,1.1-.55,1.89-.73,2.37a3.17,3.17,0,0,1-1,1.29,2.7,2.7,0,0,1-1.8.57,2.92,2.92,0,0,1-1.5-.34,2.58,2.58,0,0,1-.95-1,5.85,5.85,0,0,1-.59-1.47c-.16-.57-.3-1.09-.42-1.58l-4-16.32a9.65,9.65,0,0,1-.36-2.17,2.13,2.13,0,0,1,.66-1.58,2.24,2.24,0,0,1,1.63-.65,1.84,1.84,0,0,1,1.8.86,9.56,9.56,0,0,1,.82,2.5l3.17,14.15,3.55-13.24a21.88,21.88,0,0,1,.72-2.32,3.38,3.38,0,0,1,1-1.37,3,3,0,0,1,1.94-.58,2.77,2.77,0,0,1,1.92.61,3.33,3.33,0,0,1,1,1.31c.17.47.41,1.26.71,2.35l3.58,13.24,3.18-14.15a15.36,15.36,0,0,1,.44-1.74,2.64,2.64,0,0,1,.71-1.12,2,2,0,0,1,1.46-.5,2.26,2.26,0,0,1,1.63.64,2.08,2.08,0,0,1,.67,1.59,10.39,10.39,0,0,1-.36,2.17l-4,16.32c-.28,1.1-.5,1.91-.68,2.42a3.26,3.26,0,0,1-.93,1.35,2.66,2.66,0,0,1-1.84.58,2.78,2.78,0,0,1-1.81-.56,3.12,3.12,0,0,1-.94-1.27C157.57,48.7,157.33,47.9,157,46.77Z" transform="translate(-10.39 -10.21)"/></svg>