<svg id="Layer_1" data-name="Layer 1" xmlns="http://www.w3.org/2000/svg" viewBox="0 0 157.9 51.91"><defs><style>.cls-1{fill:#fff;}</style></defs><title>SNOW logo_white</title><path class="cls-1" d="M27.05,42.77c1-.39,1.71.18,1.54,1.26L26.4,57.3c-.18,1.08-.67,1.14-1.09.13L23.1,52.16a4.28,4.28,0,0,0-2.71-2.26l-5.83-1.27c-1.07-.23-1.11-.74-.08-1.12l12.58-4.74c1-.39,1.71.18,1.54,1.26L26.4,57.3c-.18,1.08-.66,1.13-1.08.12l-2.13-5.17A4.28,4.28,0,0,0,20.5,50l-5.95-1.33c-1.07-.24-1.1-.75-.08-1.13Z" transform="translate(-10.39 -10.22)"/><path class="cls-1" d="M40.39,31.09c-.89.4-1.54-.07-1.44-1l1.22-11.93c.1-1,.53-1,1-.17l2.26,4.57A3.83,3.83,0,0,0,46,24.42l5.26.81c1,.15,1,.6.14,1l-11,4.86c-.89.4-1.54-.07-1.44-1l1.22-11.93c.1-1,.53-1,1-.17l2.18,4.49a3.82,3.82,0,0,0,2.53,1.88l5.36.86c1,.15,1,.61.13,1Z" transform="translate(-10.39 -10.22)"/><path class="cls-1" d="M35.43,46.69A1.13,1.13,0,0,1,36.5,45.5a1.11,1.11,0,0,1,.93.41L48.78,55c.92.74.72,1.23-.46,1.1l-6.14-.7a4.66,4.66,0,0,0-3.55,1.37l-4.26,4.82c-.78.88-1.28.65-1.1-.51l2.17-14.35a1.13,1.13,0,0,1,1.07-1.19,1.11,1.11,0,0,1,.93.41l11.34,9c.92.74.72,1.22-.45,1.08l-6-.73a4.64,4.64,0,0,0-3.56,1.34l-4.39,4.9c-.79.88-1.29.64-1.11-.52Z" transform="translate(-10.39 -10.22)"/><path class="cls-1" d="M31.88,30.18c-.23,1.51-1.4,2-2.59,1L14.61,19.4c-1.19-1-.93-1.6.59-1.42l8,.93a6,6,0,0,0,4.61-1.76l5.55-6.24c1-1.14,1.66-.84,1.43.67l-2.91,18.6c-.23,1.51-1.4,2-2.59,1L14.61,19.4c-1.19-1-.93-1.59.59-1.4L23,19a6,6,0,0,0,4.62-1.72l5.71-6.34c1-1.14,1.67-.83,1.44.68Z" transform="translate(-10.39 -10.22)"/><path class="cls-1" d="M22.47,35.29a.91.91,0,0,1,.4,1.22.92.92,0,0,1-.67.49L11.27,41.17c-.89.34-1.15,0-.58-.76l3-4a3.74,3.74,0,0,0,.51-3l-1.61-4.94c-.29-.9.07-1.15.81-.55l9.08,7.38A.91.91,0,0,1,22.2,37L11.27,41.17c-.89.34-1.14,0-.57-.76l3-3.87a3.71,3.71,0,0,0,.53-3l-1.61-5.05c-.29-.91.08-1.16.82-.56Z" transform="translate(-10.39 -10.22)"/><path class="cls-1" d="M43,40a.89.89,0,0,1-.32-1.22.9.9,0,0,1,.64-.43L54,34.64c.87-.3,1.11,0,.53.76l-3,3.76a3.61,3.61,0,0,0-.59,2.92l1.4,4.84c.26.89-.1,1.12-.8.51L43,40a.89.89,0,0,1-.32-1.22.9.9,0,0,1,.64-.43L54,34.64c.87-.3,1.11,0,.52.75l-3,3.66a3.59,3.59,0,0,0-.6,2.91l1.4,4.95c.25.89-.11,1.12-.81.51Z" transform="translate(-10.39 -10.22)"/><path class="cls-1" d="M82.71,43.31a7.07,7.07,0,0,1-1.13,4A7.51,7.51,0,0,1,78.27,50a12.46,12.46,0,0,1-5.18,1,11.62,11.62,0,0,1-5.92-1.36A7.9,7.9,0,0,1,64.48,47a5.88,5.88,0,0,1-1-3.17,2.14,2.14,0,0,1,2.11-2.17h.09a1.85,1.85,0,0,1,1.31.5,3.89,3.89,0,0,1,.92,1.47,10.17,10.17,0,0,0,1,1.94,4.16,4.16,0,0,0,1.51,1.28,5.51,5.51,0,0,0,2.56.5,5.81,5.81,0,0,0,3.55-1,3.05,3.05,0,0,0,1.37-2.54,2.7,2.7,0,0,0-.74-2,4.77,4.77,0,0,0-1.9-1.15,29.64,29.64,0,0,0-3.12-.84,23,23,0,0,1-4.37-1.43A7,7,0,0,1,65,36.16a5.83,5.83,0,0,1-1-3.51,6,6,0,0,1,1-3.49,6.92,6.92,0,0,1,3.16-2.39A12.89,12.89,0,0,1,73,25.93a12,12,0,0,1,3.86.55A8.15,8.15,0,0,1,79.59,28a6.24,6.24,0,0,1,1.57,1.93,4.49,4.49,0,0,1,.5,2,2.35,2.35,0,0,1-.66,1.5,2,2,0,0,1-1.55.7,1.8,1.8,0,0,1-1.28-.42,5.66,5.66,0,0,1-1-1.38,6.21,6.21,0,0,0-1.59-2.14,4.68,4.68,0,0,0-3-.77,5.2,5.2,0,0,0-3.07.83,2.42,2.42,0,0,0-1.16,2,2,2,0,0,0,.4,1.25,3.2,3.2,0,0,0,1.09.91,7.29,7.29,0,0,0,1.41.6q.7.23,2.34.63a36.7,36.7,0,0,1,3.72,1.06,11.52,11.52,0,0,1,2.83,1.41A5.81,5.81,0,0,1,82,40.2,6.73,6.73,0,0,1,82.71,43.31Z" transform="translate(-10.39 -10.22)"/><path class="cls-1" d="M93.28,28.88l9.44,14.29V28.74a3.13,3.13,0,0,1,.6-2.11,2,2,0,0,1,1.63-.7,2.12,2.12,0,0,1,1.67.7,3.19,3.19,0,0,1,.62,2.11V47.81c0,2.13-.88,3.2-2.65,3.19a3.45,3.45,0,0,1-1.19-.19,3,3,0,0,1-1-.6,5.89,5.89,0,0,1-.86-1c-.26-.37-.53-.74-.79-1.13L91.54,34V48.19a3,3,0,0,1-.65,2.1,2.3,2.3,0,0,1-3.33,0,3.09,3.09,0,0,1-.63-2.09V29.49a5.39,5.39,0,0,1,.26-1.87,2.65,2.65,0,0,1,1-1.22,2.83,2.83,0,0,1,1.57-.47,2.57,2.57,0,0,1,2,.8,6.06,6.06,0,0,1,.73.94Z" transform="translate(-10.39 -10.22)"/><path class="cls-1" d="M123.27,25.93a13,13,0,0,1,6.48,1.53,10,10,0,0,1,4.09,4.35,14.84,14.84,0,0,1,1.39,6.62,16.4,16.4,0,0,1-.76,5.11,11.08,11.08,0,0,1-2.28,4,9.9,9.9,0,0,1-3.74,2.58,14.7,14.7,0,0,1-10.17,0,10.15,10.15,0,0,1-3.75-2.59,11.08,11.08,0,0,1-2.28-4,16.52,16.52,0,0,1-.77-5.08,15.62,15.62,0,0,1,.8-5.12,11,11,0,0,1,2.32-4,10,10,0,0,1,3.71-2.5A13.33,13.33,0,0,1,123.27,25.93Zm7,12.47a11.38,11.38,0,0,0-.86-4.61,6.4,6.4,0,0,0-2.46-3,6.75,6.75,0,0,0-3.66-1,6.68,6.68,0,0,0-2.72.55A6.09,6.09,0,0,0,118.4,32a7.74,7.74,0,0,0-1.4,2.7,12.21,12.21,0,0,0-.52,3.7,12.43,12.43,0,0,0,.52,3.74,7.56,7.56,0,0,0,1.47,2.77,6.1,6.1,0,0,0,2.18,1.65,6.87,6.87,0,0,0,6.16-.4,6.57,6.57,0,0,0,2.51-2.91,11.22,11.22,0,0,0,.93-4.85Z" transform="translate(-10.39 -10.22)"/><path class="cls-1" d="M157,46.77l-3.92-14.54-4,14.54c-.31,1.1-.55,1.89-.73,2.37a3.16,3.16,0,0,1-1,1.29,2.71,2.71,0,0,1-1.8.57,3,3,0,0,1-1.5-.34,2.67,2.67,0,0,1-1-1,6,6,0,0,1-.59-1.47c-.16-.57-.29-1.1-.41-1.58l-4-16.32a10,10,0,0,1-.36-2.17,2.15,2.15,0,0,1,.66-1.59,2.24,2.24,0,0,1,1.64-.64,1.85,1.85,0,0,1,1.8.86,9.5,9.5,0,0,1,.81,2.5l3.17,14.15,3.55-13.25a21.2,21.2,0,0,1,.71-2.31,3.32,3.32,0,0,1,1-1.37,3,3,0,0,1,1.94-.58,2.8,2.8,0,0,1,1.93.6,3.38,3.38,0,0,1,1,1.31c.17.47.41,1.26.71,2.35L160.2,43.4l3.18-14.15a17,17,0,0,1,.44-1.74,2.82,2.82,0,0,1,.71-1.12,2,2,0,0,1,1.46-.5,2.3,2.3,0,0,1,1.63.64,2.11,2.11,0,0,1,.67,1.6,10,10,0,0,1-.36,2.17l-4,16.32c-.28,1.1-.5,1.91-.68,2.42a3.25,3.25,0,0,1-.93,1.35,2.67,2.67,0,0,1-1.84.58,2.78,2.78,0,0,1-1.8-.56,3,3,0,0,1-.94-1.27C157.57,48.69,157.33,47.9,157,46.77Z" transform="translate(-10.39 -10.22)"/></svg>