<svg id="Layer_1" data-name="Layer 1" xmlns="http://www.w3.org/2000/svg" viewBox="0 0 450.97 90.46"><defs><style>.cls-1{fill:#fff;}</style></defs><title>logo-WHITE</title><path class="cls-1" d="M54.5,44.5c-.9.4-1.5-.1-1.4-1l1.6-15.8c.1-1,.5-1,1-.2L58.9,34a4,4,0,0,0,2.5,1.9L68.9,37c1,.1,1,.6.1,1L54.5,44.5c-.9.4-1.5-.1-1.4-1l1.6-15.8c.1-1,.5-1,1-.2l3.1,6.4a4,4,0,0,0,2.5,1.9L68.9,37c1,.2,1,.6.1,1Z" transform="translate(-17.13 -17.94)"/><path class="cls-1" d="M48.8,63.4c.2-1.2,1.1-1.5,2-.8l15,12c.9.7.7,1.2-.5,1.1l-8.8-1a4.82,4.82,0,0,0-3.6,1.4l-6,6.8c-.8.9-1.3.7-1.1-.5l3-19c.2-1.2,1.1-1.5,2-.8l15,12c.9.7.7,1.2-.5,1.1l-8.6-1A5.15,5.15,0,0,0,53.1,76L47,82.9c-.8.9-1.3.6-1.1-.5Z" transform="translate(-17.13 -17.94)"/><path class="cls-1" d="M32.8,49.9c.7.6.6,1.4-.3,1.7L18,57.1c-.9.3-1.1,0-.6-.8l4.3-5.7a3.58,3.58,0,0,0,.5-3l-2.3-7c-.3-.9.1-1.2.8-.6l12.1,9.9c.7.6.6,1.4-.3,1.7L18,57.1c-.9.3-1.1,0-.6-.8l4.2-5.5a3.58,3.58,0,0,0,.5-3L20,40.7c-.3-.9.1-1.2.8-.6Z" transform="translate(-17.13 -17.94)"/><path class="cls-1" d="M38.7,58.8c1-.4,1.7.2,1.5,1.3L37.3,77.7c-.2,1.1-.7,1.1-1.1.1l-3.1-7.5A4.43,4.43,0,0,0,30.4,68l-8.3-1.8C21,66,21,65.5,22,65.1l16.7-6.3c1-.4,1.7.2,1.5,1.3L37.3,77.7c-.2,1.1-.7,1.1-1.1.1l-3-7.4a4.43,4.43,0,0,0-2.7-2.3l-8.4-1.9C21,66,21,65.5,22,65.1Z" transform="translate(-17.13 -17.94)"/><path class="cls-1" d="M44.2,43.9c-.2,1.5-1.4,2-2.6,1L22.1,29.3c-1.2-1-.9-1.6.6-1.4L34,29.2a5.75,5.75,0,0,0,4.6-1.8l7.9-8.8c1-1.1,1.7-.8,1.4.7L44.2,43.9c-.2,1.5-1.4,2-2.6,1L22.1,29.3c-1.2-1-.9-1.6.6-1.4l11.1,1.4a6,6,0,0,0,4.6-1.7l8.1-9c1-1.1,1.7-.8,1.4.7Z" transform="translate(-17.13 -17.94)"/><path class="cls-1" d="M57.8,55.2c-.7-.6-.6-1.3.3-1.6l14.2-4.9c.9-.3,1.1,0,.5.8l-4.3,5.4a3.7,3.7,0,0,0-.6,2.9l2,6.9c.3.9-.1,1.1-.8.5l-11.3-10c-.7-.6-.6-1.3.3-1.6l14.2-4.9c.9-.3,1.1,0,.5.8l-4.3,5.2a3.34,3.34,0,0,0-.6,2.9l2,7c.3.9-.1,1.1-.8.5Z" transform="translate(-17.13 -17.94)"/><path class="cls-1" d="M109.9,59.7a9.06,9.06,0,0,1-1.4,4.9,8.69,8.69,0,0,1-4.1,3.4,16,16,0,0,1-6.5,1.2,14.73,14.73,0,0,1-7.4-1.7,9.75,9.75,0,0,1-3.4-3.3,7.27,7.27,0,0,1-1.3-4,2.73,2.73,0,0,1,.8-1.9,2.79,2.79,0,0,1,2-.8,2.27,2.27,0,0,1,1.6.6,5,5,0,0,1,1.1,1.8,8.91,8.91,0,0,0,1.3,2.4,5.07,5.07,0,0,0,1.9,1.6,7.31,7.31,0,0,0,3.2.6,6.78,6.78,0,0,0,4.4-1.3,4,4,0,0,0,1.7-3.2,3.66,3.66,0,0,0-.9-2.5,5.66,5.66,0,0,0-2.4-1.4c-1-.3-2.3-.7-3.9-1.1a27.28,27.28,0,0,1-5.5-1.8,8.89,8.89,0,0,1-3.5-2.8A7,7,0,0,1,86.3,46a7.22,7.22,0,0,1,1.4-4.4,8.54,8.54,0,0,1,3.9-3,16.26,16.26,0,0,1,6.1-1,13.51,13.51,0,0,1,4.8.7,12,12,0,0,1,3.4,1.8,10.61,10.61,0,0,1,2,2.4,5.73,5.73,0,0,1,.6,2.5,3.18,3.18,0,0,1-.8,2,2.46,2.46,0,0,1-1.9.9,2.54,2.54,0,0,1-1.6-.5,6.21,6.21,0,0,1-1.2-1.7,9.49,9.49,0,0,0-2-2.7,6.06,6.06,0,0,0-3.7-1,6.13,6.13,0,0,0-3.8,1A3,3,0,0,0,92,45.5a3,3,0,0,0,.5,1.6,4,4,0,0,0,1.4,1.1,6.7,6.7,0,0,0,1.8.7c.6.2,1.6.4,2.9.8a37.07,37.07,0,0,1,4.6,1.3,12.72,12.72,0,0,1,3.5,1.8,8.15,8.15,0,0,1,2.3,2.6A10.36,10.36,0,0,1,109.9,59.7Z" transform="translate(-17.13 -17.94)"/><path class="cls-1" d="M123.1,41.6l11.8,17.9v-18a3.26,3.26,0,0,1,.8-2.6,2.52,2.52,0,0,1,2-.9,2.58,2.58,0,0,1,2.1.9,4,4,0,0,1,.8,2.6V65.3c0,2.7-1.1,4-3.3,4a6.05,6.05,0,0,1-1.5-.2,3.17,3.17,0,0,1-1.2-.8,6.53,6.53,0,0,1-1.1-1.2c-.3-.5-.7-.9-1-1.4L120.9,48V65.8a3.84,3.84,0,0,1-.8,2.6,2.9,2.9,0,0,1-4.2,0,4,4,0,0,1-.8-2.6V42.4a6.71,6.71,0,0,1,.3-2.3,3.74,3.74,0,0,1,1.3-1.5,3.61,3.61,0,0,1,2-.6,2.9,2.9,0,0,1,1.4.3,3.59,3.59,0,0,1,1,.7,6.23,6.23,0,0,1,.9,1.2A17.1,17.1,0,0,1,123.1,41.6Z" transform="translate(-17.13 -17.94)"/><path class="cls-1" d="M160.6,37.9a16.17,16.17,0,0,1,8.1,1.9,12.09,12.09,0,0,1,5.1,5.4,18.12,18.12,0,0,1,1.7,8.3,18.69,18.69,0,0,1-1,6.4,13.16,13.16,0,0,1-2.9,5,11.93,11.93,0,0,1-4.7,3.2,17.69,17.69,0,0,1-6.3,1.1,18.26,18.26,0,0,1-6.4-1.1,12.45,12.45,0,0,1-7.5-8.2,22,22,0,0,1-1-6.4,18.69,18.69,0,0,1,1-6.4,14.61,14.61,0,0,1,2.9-5,12.09,12.09,0,0,1,4.6-3.1A19.11,19.11,0,0,1,160.6,37.9Zm8.7,15.6a15,15,0,0,0-1.1-5.8,7.59,7.59,0,0,0-3.1-3.7,8.83,8.83,0,0,0-4.6-1.3,7.67,7.67,0,0,0-3.4.7,8.62,8.62,0,0,0-2.7,2,9.94,9.94,0,0,0-1.8,3.4,16.44,16.44,0,0,0-.7,4.6,14.05,14.05,0,0,0,.7,4.7,10.48,10.48,0,0,0,1.8,3.5,9,9,0,0,0,2.7,2.1,7.67,7.67,0,0,0,3.4.7,8,8,0,0,0,4.3-1.2,7.88,7.88,0,0,0,3.1-3.6A11.72,11.72,0,0,0,169.3,53.5Z" transform="translate(-17.13 -17.94)"/><path class="cls-1" d="M202.8,64l-4.9-18.2-5,18.2q-.6,2.1-.9,3a3.57,3.57,0,0,1-1.2,1.6,3.33,3.33,0,0,1-2.3.7,3.58,3.58,0,0,1-1.9-.4,3.45,3.45,0,0,1-1.2-1.2,7.51,7.51,0,0,1-.7-1.8,19.45,19.45,0,0,1-.5-2l-5.1-20.4a13.15,13.15,0,0,1-.5-2.7,2.73,2.73,0,0,1,2.8-2.8,2.48,2.48,0,0,1,2.3,1.1,12.52,12.52,0,0,1,1,3.1l4,17.7,4.4-16.6a17,17,0,0,1,.9-2.9,4.31,4.31,0,0,1,1.3-1.7,3.61,3.61,0,0,1,2.4-.7,3.65,3.65,0,0,1,2.4.8,4.19,4.19,0,0,1,1.2,1.6c.2.6.5,1.6.9,2.9l4.5,16.6,4-17.7c.2-.9.4-1.7.5-2.2a4.19,4.19,0,0,1,.9-1.4,2.44,2.44,0,0,1,1.8-.6,2.79,2.79,0,0,1,2,.8,2.44,2.44,0,0,1,.8,2,8.61,8.61,0,0,1-.5,2.7l-5,20.4a13.79,13.79,0,0,1-.9,3,3.82,3.82,0,0,1-1.2,1.7,3.17,3.17,0,0,1-2.3.7,3.51,3.51,0,0,1-2.3-.7,3.57,3.57,0,0,1-1.2-1.6C203.5,66.4,203.2,65.4,202.8,64Z" transform="translate(-17.13 -17.94)"/><path class="cls-1" d="M88.2,103.3V86.1h3.5v17.2Z" transform="translate(-17.13 -17.94)"/><path class="cls-1" d="M107.1,103.3h-3.3V96.9a12.59,12.59,0,0,0-.2-2.6,1.6,1.6,0,0,0-.7-.9,2,2,0,0,0-1.1-.3,2.46,2.46,0,0,0-1.5.5,2.15,2.15,0,0,0-.9,1.2,14,14,0,0,0-.3,2.9v5.6H95.8V90.8h3.1v1.8a5.07,5.07,0,0,1,4.1-2.1,4.48,4.48,0,0,1,2,.4,3.88,3.88,0,0,1,1.4,1,3.51,3.51,0,0,1,.6,1.4,11.8,11.8,0,0,1,.2,2.2v7.8Z" transform="translate(-17.13 -17.94)"/><path class="cls-1" d="M122.2,94.5l-3.2.6a3.48,3.48,0,0,0-.7-1.5,1.84,1.84,0,0,0-1.5-.5,2.79,2.79,0,0,0-2,.8,4.11,4.11,0,0,0-.7,2.8,4.88,4.88,0,0,0,.7,3.1,2.52,2.52,0,0,0,2,.9,2.46,2.46,0,0,0,1.5-.5,2.76,2.76,0,0,0,.8-1.8l3.2.6a6,6,0,0,1-1.9,3.4,5.56,5.56,0,0,1-3.8,1.1,6,6,0,0,1-4.4-1.7,6.48,6.48,0,0,1-1.6-4.8,6.48,6.48,0,0,1,1.6-4.8,6,6,0,0,1,4.4-1.7,5.7,5.7,0,0,1,3.6,1A5.92,5.92,0,0,1,122.2,94.5Z" transform="translate(-17.13 -17.94)"/><path class="cls-1" d="M125.6,103.3V86.1h3.3v17.2Z" transform="translate(-17.13 -17.94)"/><path class="cls-1" d="M141.3,103.3v-1.9a4.64,4.64,0,0,1-1.8,1.6,4.93,4.93,0,0,1-2.3.6,4,4,0,0,1-3.6-2.1,6.91,6.91,0,0,1-.4-2.8V90.8h3.3v5.7a16.42,16.42,0,0,0,.2,3.2,1.27,1.27,0,0,0,.7.9,2.38,2.38,0,0,0,1.2.3,2.46,2.46,0,0,0,1.5-.5,2.33,2.33,0,0,0,.9-1.1,19.29,19.29,0,0,0,.2-3.4V90.7h3.3v12.4h-3.2Z" transform="translate(-17.13 -17.94)"/><path class="cls-1" d="M147.5,99.7l3.3-.5a2.37,2.37,0,0,0,.9,1.5,2.57,2.57,0,0,0,1.8.5,3.09,3.09,0,0,0,1.9-.5,1,1,0,0,0,.4-.9,1.07,1.07,0,0,0-.2-.6,1.93,1.93,0,0,0-1.1-.4,18.88,18.88,0,0,1-5.1-1.6,3.41,3.41,0,0,1-.2-5.5,6.36,6.36,0,0,1,4-1.1,7.41,7.41,0,0,1,3.8.8,4.19,4.19,0,0,1,1.7,2.5l-3.1.6a1.55,1.55,0,0,0-.8-1.1,3.41,3.41,0,0,0-1.6-.4,3.16,3.16,0,0,0-1.9.4,1,1,0,0,0-.4.7.86.86,0,0,0,.3.6,13.56,13.56,0,0,0,3.1.9,8.72,8.72,0,0,1,3.7,1.5,3,3,0,0,1,1,2.4,3.85,3.85,0,0,1-1.4,2.9,6.38,6.38,0,0,1-4.2,1.2,6.78,6.78,0,0,1-4-1A4.82,4.82,0,0,1,147.5,99.7Z" transform="translate(-17.13 -17.94)"/><path class="cls-1" d="M162.9,89.2v-3h3.3v3Zm0,14.1V90.8h3.3v12.4h-3.3Z" transform="translate(-17.13 -17.94)"/><path class="cls-1" d="M173.9,103.3l-5-12.4h3.5l2.3,6.4.7,2.1a3.63,3.63,0,0,0,.3-1.1,4.87,4.87,0,0,1,.4-1.1l2.4-6.4h3.4L177,103.2h-3.1Z" transform="translate(-17.13 -17.94)"/><path class="cls-1" d="M191.9,99.3l3.3.6a5.09,5.09,0,0,1-2,2.7,5.93,5.93,0,0,1-3.4.9,5.49,5.49,0,0,1-4.8-2.1,7.28,7.28,0,0,1-1.2-4.3,6.48,6.48,0,0,1,1.6-4.8,5.91,5.91,0,0,1,8.5,0c1.1,1.2,1.6,3.1,1.5,5.6h-8.2a3.37,3.37,0,0,0,.8,2.3,2.24,2.24,0,0,0,1.9.8,2,2,0,0,0,1.3-.4C191.6,100.3,191.7,100,191.9,99.3Zm.2-3.3a3.39,3.39,0,0,0-.7-2.2,2.06,2.06,0,0,0-1.7-.7,2.5,2.5,0,0,0-1.8.8,2.82,2.82,0,0,0-.7,2.1Z" transform="translate(-17.13 -17.94)"/><path class="cls-1" d="M206.6,103.3v-17h3.5v14.1h8.6v2.9Z" transform="translate(-17.13 -17.94)"/><path class="cls-1" d="M229.3,99.3l3.3.6a5.09,5.09,0,0,1-2,2.7,5.93,5.93,0,0,1-3.4.9,5.49,5.49,0,0,1-4.8-2.1,7.28,7.28,0,0,1-1.2-4.3,6.48,6.48,0,0,1,1.6-4.8,5.91,5.91,0,0,1,8.5,0c1.1,1.2,1.6,3.1,1.5,5.6h-8.2a3.37,3.37,0,0,0,.8,2.3,2.24,2.24,0,0,0,1.9.8,2,2,0,0,0,1.3-.4C229,100.3,229.1,100,229.3,99.3Zm.1-3.3a3.39,3.39,0,0,0-.7-2.2,2.06,2.06,0,0,0-1.7-.7,2.5,2.5,0,0,0-1.8.8,2.82,2.82,0,0,0-.7,2.1Z" transform="translate(-17.13 -17.94)"/><path class="cls-1" d="M238.7,94.6l-3-.5a4.69,4.69,0,0,1,1.7-2.7,6.1,6.1,0,0,1,3.7-.9,8.75,8.75,0,0,1,3.3.5,3.24,3.24,0,0,1,1.5,1.3,6.56,6.56,0,0,1,.4,2.9V99a12.53,12.53,0,0,0,.2,2.4,7,7,0,0,0,.6,1.7h-3.3a4.05,4.05,0,0,1-.3-1,.76.76,0,0,1-.1-.4,6.28,6.28,0,0,1-1.8,1.2,6.54,6.54,0,0,1-2.1.4,4,4,0,0,1-3-1,3.63,3.63,0,0,1-1.1-2.6,4.14,4.14,0,0,1,.5-1.9,3,3,0,0,1,1.4-1.3,16.51,16.51,0,0,1,2.6-.8,28.69,28.69,0,0,0,3.2-.8v-.3a2,2,0,0,0-.5-1.4,2.65,2.65,0,0,0-1.8-.4,2.9,2.9,0,0,0-1.4.3C239,93.3,238.9,94.1,238.7,94.6Zm4.5,2.7c-.4.1-1.1.3-2,.5a6,6,0,0,0-1.8.6,1.43,1.43,0,0,0-.6,1.2,1.66,1.66,0,0,0,.5,1.2,1.9,1.9,0,0,0,1.3.5,2.72,2.72,0,0,0,1.7-.6,2.1,2.1,0,0,0,.8-1.1,6.22,6.22,0,0,0,.1-1.6Z" transform="translate(-17.13 -17.94)"/><path class="cls-1" d="M253.7,103.3h-3.3V90.8h3.1v1.8a6.61,6.61,0,0,1,1.4-1.7,2.3,2.3,0,0,1,1.4-.4,4.28,4.28,0,0,1,2.2.6l-1,2.9a2.64,2.64,0,0,0-1.5-.5,1.59,1.59,0,0,0-1.2.4,3,3,0,0,0-.8,1.4,18.62,18.62,0,0,0-.3,4.2Z" transform="translate(-17.13 -17.94)"/><path class="cls-1" d="M272.1,103.3h-3.3V96.9a12.59,12.59,0,0,0-.2-2.6,1.6,1.6,0,0,0-.7-.9,2,2,0,0,0-1.1-.3,2.46,2.46,0,0,0-1.5.5,2.15,2.15,0,0,0-.9,1.2,14,14,0,0,0-.3,2.9v5.6h-3.3V90.8h3.1v1.8a5.07,5.07,0,0,1,4.1-2.1,4.48,4.48,0,0,1,2,.4,3.88,3.88,0,0,1,1.4,1,3.51,3.51,0,0,1,.6,1.4,11.8,11.8,0,0,1,.2,2.2v7.8Z" transform="translate(-17.13 -17.94)"/><path class="cls-1" d="M276.3,89.2v-3h3.3v3Zm0,14.1V90.8h3.3v12.4h-3.3Z" transform="translate(-17.13 -17.94)"/><path class="cls-1" d="M295.2,103.3h-3.3V96.9a12.59,12.59,0,0,0-.2-2.6,1.6,1.6,0,0,0-.7-.9,2,2,0,0,0-1.1-.3,2.46,2.46,0,0,0-1.5.5,2.15,2.15,0,0,0-.9,1.2,14,14,0,0,0-.3,2.9v5.6h-3.3V90.8H287v1.8a5.07,5.07,0,0,1,4.1-2.1,4.48,4.48,0,0,1,2,.4,3.88,3.88,0,0,1,1.4,1,3.51,3.51,0,0,1,.6,1.4,11.8,11.8,0,0,1,.2,2.2v7.8Z" transform="translate(-17.13 -17.94)"/><path class="cls-1" d="M299.1,104.1l3.8.5a1.88,1.88,0,0,0,.4.9,2.7,2.7,0,0,0,1.5.4,3.16,3.16,0,0,0,1.9-.4,1.85,1.85,0,0,0,.7-.8,4.87,4.87,0,0,0,.2-1.5v-1.8a4.52,4.52,0,0,1-3.7,2,4.64,4.64,0,0,1-4-2.1,8.49,8.49,0,0,1,.4-9,5,5,0,0,1,3.7-1.7,4.7,4.7,0,0,1,3.8,2V90.9h3.1V102a9.15,9.15,0,0,1-.4,3.3,5.45,5.45,0,0,1-1,1.7,5,5,0,0,1-1.8,1,7.89,7.89,0,0,1-2.8.4,7.41,7.41,0,0,1-4.5-1.1,3.23,3.23,0,0,1-1.3-2.7Zm2.9-7.3a4.56,4.56,0,0,0,.8,2.9,2.32,2.32,0,0,0,1.9.9,2.52,2.52,0,0,0,2-.9,4.45,4.45,0,0,0,.8-2.8,4.77,4.77,0,0,0-.8-2.9,2.25,2.25,0,0,0-2-.9,2.66,2.66,0,0,0-2,.9A3.91,3.91,0,0,0,302,96.8Z" transform="translate(-17.13 -17.94)"/><path class="cls-1" d="M337.7,101.2l-2,2.5a10.35,10.35,0,0,1-2.8-2,7.44,7.44,0,0,1-2.2,1.4,7.89,7.89,0,0,1-2.8.4,6,6,0,0,1-4.8-1.8,4.82,4.82,0,0,1-1.3-3.2,4.72,4.72,0,0,1,1-3,8.68,8.68,0,0,1,2.9-2.3,9.61,9.61,0,0,1-1.3-2,3.92,3.92,0,0,1-.4-1.8,3.37,3.37,0,0,1,1.2-2.6,5.34,5.34,0,0,1,3.6-1.1,5.42,5.42,0,0,1,3.5,1.1,3.41,3.41,0,0,1,1.3,2.8,3.61,3.61,0,0,1-.6,2,8.14,8.14,0,0,1-2.5,2.1l2.4,3.2a7.71,7.71,0,0,0,.7-2l3,.7a18.62,18.62,0,0,1-.8,2.3,6.35,6.35,0,0,1-.7,1.2c.4.3.8.7,1.4,1.1S337.5,101.1,337.7,101.2Zm-10.2-5.8a4,4,0,0,0-1.7,1.4,2.93,2.93,0,0,0-.6,1.7,2.06,2.06,0,0,0,.7,1.7,2.94,2.94,0,0,0,1.9.7,4,4,0,0,0,1.5-.3,5.88,5.88,0,0,0,1.6-1Zm1.3-3.5.9-.7a1.93,1.93,0,0,0,1-1.5,1.61,1.61,0,0,0-.5-1.1,1.7,1.7,0,0,0-1.3-.4,1.59,1.59,0,0,0-1.2.4,1.22,1.22,0,0,0-.4.9,2.21,2.21,0,0,0,.8,1.5Z" transform="translate(-17.13 -17.94)"/><path class="cls-1" d="M348.3,103.3V86.1H361V89h-9.3v3.8h8.6v2.9h-8.6v4.7h9.6v2.9Z" transform="translate(-17.13 -17.94)"/><path class="cls-1" d="M376.6,103.3h-3.1v-1.8a5.48,5.48,0,0,1-1.8,1.6,4.06,4.06,0,0,1-2.1.5,5,5,0,0,1-3.7-1.7,7.08,7.08,0,0,1-1.5-4.8,6.9,6.9,0,0,1,1.5-4.8,5,5,0,0,1,7.4.1V86.2h3.3v17.1Zm-8.8-6.5a5.46,5.46,0,0,0,.6,2.9,2.41,2.41,0,0,0,2.2,1.3,2.17,2.17,0,0,0,1.9-1,4.77,4.77,0,0,0,.8-2.9,5,5,0,0,0-.8-3.1,2.52,2.52,0,0,0-2-.9,2.66,2.66,0,0,0-2,.9A3.91,3.91,0,0,0,367.8,96.8Z" transform="translate(-17.13 -17.94)"/><path class="cls-1" d="M388.9,103.3v-1.9a4.64,4.64,0,0,1-1.8,1.6,4.93,4.93,0,0,1-2.3.6,4,4,0,0,1-3.6-2.1,6.91,6.91,0,0,1-.4-2.8V90.8h3.3v5.7a16.42,16.42,0,0,0,.2,3.2,1.27,1.27,0,0,0,.7.9,2.38,2.38,0,0,0,1.2.3,2.46,2.46,0,0,0,1.5-.5,2.33,2.33,0,0,0,.9-1.1,19.29,19.29,0,0,0,.2-3.4V90.7h3.3v12.4h-3.2Z" transform="translate(-17.13 -17.94)"/><path class="cls-1" d="M407.1,94.5l-3.2.6a3.48,3.48,0,0,0-.7-1.5,1.84,1.84,0,0,0-1.5-.5,2.79,2.79,0,0,0-2,.8,4.11,4.11,0,0,0-.7,2.8,4.88,4.88,0,0,0,.7,3.1,2.52,2.52,0,0,0,2,.9,2.46,2.46,0,0,0,1.5-.5,2.76,2.76,0,0,0,.8-1.8l3.2.6a6,6,0,0,1-1.9,3.4,5.56,5.56,0,0,1-3.8,1.1,6,6,0,0,1-4.4-1.7,6.48,6.48,0,0,1-1.6-4.8,6.48,6.48,0,0,1,1.6-4.8,6,6,0,0,1,4.4-1.7,5.7,5.7,0,0,1,3.6,1A5.92,5.92,0,0,1,407.1,94.5Z" transform="translate(-17.13 -17.94)"/><path class="cls-1" d="M413,94.6l-3-.5a4.69,4.69,0,0,1,1.7-2.7,6.1,6.1,0,0,1,3.7-.9,8.75,8.75,0,0,1,3.3.5,3.24,3.24,0,0,1,1.5,1.3,6.56,6.56,0,0,1,.4,2.9V99a12.53,12.53,0,0,0,.2,2.4,7,7,0,0,0,.6,1.7h-3.3a4.05,4.05,0,0,1-.3-1,.76.76,0,0,1-.1-.4,6.28,6.28,0,0,1-1.8,1.2,6.54,6.54,0,0,1-2.1.4,4,4,0,0,1-3-1,3.63,3.63,0,0,1-1.1-2.6,4.14,4.14,0,0,1,.5-1.9,3,3,0,0,1,1.4-1.3,16.51,16.51,0,0,1,2.6-.8,28.69,28.69,0,0,0,3.2-.8v-.3a2,2,0,0,0-.5-1.4,2.65,2.65,0,0,0-1.8-.4,2.9,2.9,0,0,0-1.4.3C413.3,93.3,413.2,94.1,413,94.6Zm4.4,2.7c-.4.1-1.1.3-2,.5a6,6,0,0,0-1.8.6,1.43,1.43,0,0,0-.6,1.2,1.66,1.66,0,0,0,.5,1.2,1.9,1.9,0,0,0,1.3.5,2.72,2.72,0,0,0,1.7-.6,2.1,2.1,0,0,0,.8-1.1,6.22,6.22,0,0,0,.1-1.6Z" transform="translate(-17.13 -17.94)"/><path class="cls-1" d="M430.5,90.8v2.6h-2.2v5a6.73,6.73,0,0,0,.1,1.8c.1.2.1.3.3.4a1.07,1.07,0,0,0,.6.2,4.51,4.51,0,0,0,1.3-.3l.3,2.6a7.08,7.08,0,0,1-2.6.5,4.15,4.15,0,0,1-1.6-.3,2.09,2.09,0,0,1-1-.8,3.2,3.2,0,0,1-.5-1.3,12.89,12.89,0,0,1-.1-2.3V93.5h-1.5V90.9h1.5V88.4l3.3-1.9v4.4h2.1Z" transform="translate(-17.13 -17.94)"/><path class="cls-1" d="M433.6,89.2v-3h3.3v3Zm0,14.1V90.8h3.3v12.4h-3.3Z" transform="translate(-17.13 -17.94)"/><path class="cls-1" d="M440.4,96.9a7.22,7.22,0,0,1,.8-3.2,5.12,5.12,0,0,1,2.3-2.3,7.31,7.31,0,0,1,3.3-.8,6.18,6.18,0,0,1,4.6,1.8,6.34,6.34,0,0,1,1.8,4.6,6.57,6.57,0,0,1-1.8,4.7,5.89,5.89,0,0,1-4.6,1.9,8,8,0,0,1-3.3-.8,5.34,5.34,0,0,1-2.4-2.3A6.84,6.84,0,0,1,440.4,96.9Zm3.4.2a3.93,3.93,0,0,0,.9,2.8,3,3,0,0,0,2.2,1,2.7,2.7,0,0,0,2.2-1A4.2,4.2,0,0,0,450,97a3.93,3.93,0,0,0-.9-2.8,3,3,0,0,0-2.2-1,2.7,2.7,0,0,0-2.2,1A4.2,4.2,0,0,0,443.8,97.1Z" transform="translate(-17.13 -17.94)"/><path class="cls-1" d="M468,103.3h-3.3V96.9a12.59,12.59,0,0,0-.2-2.6,1.6,1.6,0,0,0-.7-.9,2,2,0,0,0-1.1-.3,2.46,2.46,0,0,0-1.5.5,2.15,2.15,0,0,0-.9,1.2,14,14,0,0,0-.3,2.9v5.6h-3.3V90.8h3.1v1.8a5.07,5.07,0,0,1,4.1-2.1,4.48,4.48,0,0,1,2,.4,3.88,3.88,0,0,1,1.4,1,3.51,3.51,0,0,1,.6,1.4,11.8,11.8,0,0,1,.2,2.2v7.8Z" transform="translate(-17.13 -17.94)"/></svg>