<svg id="Layer_1" data-name="Layer 1" xmlns="http://www.w3.org/2000/svg" viewBox="0 0 175 58"><defs><style>.cls-1{isolation:isolate;}.cls-2{fill:#999;}</style></defs><title>ontario-logo</title><g class="cls-1"><path class="cls-2" d="M7.29,26.76a.79.79,0,0,0,.13-.31.78.78,0,0,0-.22-.59A2.37,2.37,0,0,0,5.39,25a2.21,2.21,0,0,0-1.91,1.76,1.25,1.25,0,0,0,1.41,1.49A4.07,4.07,0,0,0,7.29,26.76Z"/><path class="cls-2" d="M16.44,25.53c.07-.53-.54-1-1.89-1.49C10.5,22.58,8.11,19,7.31,13.42v-.05l0,0c-.19-.17-.44-.35-.69-.14-.53.45-.19,2.37,1.09,7.78l.49,2.13a8.13,8.13,0,0,1,.2,3.12,11.07,11.07,0,0,1-1.13,3.29L6.07,31.91C2.93,38.25,1.89,40.59,2.32,41c.2.21.54-.05.8-.3l0,0,0-.06A35.7,35.7,0,0,1,6,35.12a20.31,20.31,0,0,1,8.15-7.72,5.56,5.56,0,0,0,2.18-1.53A.72.72,0,0,0,16.44,25.53Z"/><path class="cls-2" d="M44.38,14.51h.08l.07,0a1.86,1.86,0,0,0,.81-.54.56.56,0,0,0,.07-.26c-.06-.77-2.9-.87-10.45-.74l-2.72,0a8.19,8.19,0,0,1-3.33-.51,6.28,6.28,0,0,1-2.31-1.91L25.25,8.87C21.88,4.58,20.62,3.21,20,3.59a.55.55,0,0,0-.17.17,1.16,1.16,0,0,0-.1.69v0l0,0a13.8,13.8,0,0,1,3.84,13.55c-.4,1.69-.39,2.58,0,2.79s1.29-.23,2.73-1.43C30.91,15.64,36.85,13.94,44.38,14.51Z"/><path class="cls-2" d="M32.21,7a2.47,2.47,0,0,0-2.63,1.31c-.62,1-.72,2.88-.15,3.13s2.44-.94,3.07-2S33,7.28,32.21,7Z"/><path class="cls-2" d="M21.81,42.66l1.89-2.34a11.59,11.59,0,0,1,2.93-2.72,10.66,10.66,0,0,1,3.72-1.24l2.92-.48c8.12-1.3,11.17-1.94,11.29-2.84.06-.41-.42-.6-.85-.73l-.08,0-.08,0c-8.09,2.07-14.17,1.27-18.28-2.09-1.26-1-2.07-1.35-2.56-1a1,1,0,0,0-.27.28,5.43,5.43,0,0,0-.36,2.76A21,21,0,0,1,18.53,44a34.67,34.67,0,0,1-4.12,5.27l0,.06a.26.26,0,0,0,0,.07c-.12.4-.22.9.07,1.07C15,50.9,16.88,48.8,21.81,42.66Z"/><path class="cls-2" d="M26.82,42.35a2.19,2.19,0,0,0,1.34,1.23,1.72,1.72,0,0,0,1.37-.15,2.06,2.06,0,0,0,.91-1.16,2.66,2.66,0,0,0-.13-2c-.52-1.09-2.36-2.12-3-1.72a1,1,0,0,0-.27.28,2.62,2.62,0,0,0-.21.47A4.82,4.82,0,0,0,26.82,42.35Z"/></g><g class="cls-1"><path class="cls-2" d="M61.8,22a.26.26,0,0,0,.11-.21.2.2,0,0,0-.12-.18c-.54-.34-12.39-7.54-22.37-4.94a.3.3,0,0,0-.19.14.21.21,0,0,0,0,.11.19.19,0,0,0,.19.21c6.6.46,13,4,14.93,5.13l.32.19-.32.24c-1.93,1.45-8.62,6.23-15.51,8a.28.28,0,0,0-.23.26.22.22,0,0,0,.22.23C49.05,32.06,61.27,22.43,61.8,22Z"/><path class="cls-2" d="M20.05,8.22a.24.24,0,0,0,.1-.26C18.21,1.67,9.89.23,9.56.18a.15.15,0,0,0-.14,0,.23.23,0,0,0-.1.14c-.13.4-3,10.11.35,15.16a.15.15,0,0,0,.22,0,.26.26,0,0,0,.11-.25c-.81-4.56.48-10,.88-11.57L11,3.46l.21,0c1.26.3,5.75,1.56,8.64,4.71A.18.18,0,0,0,20.05,8.22Z"/><path class="cls-2" d="M15.8,44.49a.27.27,0,0,0-.05-.31h0a.21.21,0,0,0-.28,0A35,35,0,0,1,3.89,52.3l-.26.11v-.32A44.67,44.67,0,0,1,6.52,37.92a.21.21,0,0,0,0-.27.18.18,0,0,0-.24.07C.88,44.43.55,56.56.54,57.1a.24.24,0,0,0,.06.17.15.15,0,0,0,.16,0C1.19,57.15,11.77,53.24,15.8,44.49Z"/></g><path class="cls-2" d="M87.13,37.32h3.31v3.11h.08a6.63,6.63,0,0,1,6.09-3.56c4.81,0,7,3.14,7,8.4V56.89h-3.43V46.76c0-4.56-1-6.78-3.93-7-3.91,0-5.65,3.29-5.65,8.05v9H87.13Z"/><path class="cls-2" d="M119.44,38.71a11.31,11.31,0,0,1,6.12-1.84c5.32,0,7.46,2.76,7.46,8.08v8.1a29.5,29.5,0,0,0,.16,3.84H130V54.36h-.06a6.83,6.83,0,0,1-5.77,3c-4,0-6.81-1.84-6.81-6.1,0-4.92,5.1-6.45,8.64-6.45,1.35,0,2.29,0,3.64.09,0-3.38-1.16-5.1-4.59-5.1a8.42,8.42,0,0,0-5.39,2l-.18-3.07m10.16,8.86c-.73,0-1.45-.08-2.19-.08-1.85,0-6.45.31-6.45,3.76a3.34,3.34,0,0,0,3.47,3.19,4.82,4.82,0,0,0,5.17-5.15Z"/><path class="cls-2" d="M146.51,40.48a6,6,0,0,0-1.42-.15c-3.22,0-5.34,3.07-5.34,8v8.58h-3.61V37.48h3.39v3.19h.07a6,6,0,0,1,5.1-3.49,9.65,9.65,0,0,1,1.81.15Z"/><path class="cls-2" d="M164.53,36.87c5.65,0,9.44,4.29,9.44,10.24,0,5.6-3.86,10.24-9.44,10.24s-9.47-4.64-9.47-10.24c0-6,3.78-10.24,9.47-10.24m0,17.57c4,0,5.8-3.83,5.8-7.33,0-3.72-2.15-7.32-5.8-7.32s-5.83,3.6-5.83,7.32C158.7,50.61,160.48,54.44,164.53,54.44Z"/><path class="cls-2" d="M115.94,37.32h-5V31.64l-3.59,1.16v4.5l-3,3h3V51.67c0,3.92,2.3,5.68,6,5.68a10.63,10.63,0,0,0,2.91-.49v-3a4.43,4.43,0,0,1-2.29.61c-1.66,0-3-1.23-3-3.5V40.24h5Z"/><rect class="cls-2" x="148.75" y="37.32" width="3.6" height="19.57"/><path class="cls-2" d="M150.54,34.71a2.21,2.21,0,1,0-2.21-2.21A2.2,2.2,0,0,0,150.54,34.71Z"/><path class="cls-2" d="M72.16,29.66c7.74,0,12.26,5.9,12.26,13.84,0,8.13-4.49,13.85-12.26,13.85S59.92,51.63,59.92,43.5c0-7.94,4.52-13.84,12.24-13.84m0,24.32c5.87,0,8.39-5.15,8.39-10.48S77.78,33,72.16,33s-8.37,5-8.37,10.47S66.31,54,72.16,54Z"/></svg>