<?xml version="1.0" encoding="utf-8"?>
<!-- Generator: Adobe Illustrator 22.1.0, SVG Export Plug-In . SVG Version: 6.00 Build 0)  -->
<svg version="1.1" id="Layer_1" xmlns="http://www.w3.org/2000/svg" xmlns:xlink="http://www.w3.org/1999/xlink" x="0px" y="0px"
	 viewBox="0 0 483 122.6" style="enable-background:new 0 0 483 122.6;" xml:space="preserve">
<style type="text/css">
	.st0{fill:#7ECABC;}
	.st1{fill:#F7AB83;}
	.st2{fill:#0B2948;}
</style>
<g>
	<g>
		<path class="st0" d="M54.5,44.5c-0.9,0.4-1.5-0.1-1.4-1l1.6-15.8c0.1-1,0.5-1,1-0.2l3.2,6.5c0.4,0.9,1.6,1.7,2.5,1.9l7.5,1.1
			c1,0.1,1,0.6,0.1,1L54.5,44.5c-0.9,0.4-1.5-0.1-1.4-1l1.6-15.8c0.1-1,0.5-1,1-0.2l3.1,6.4c0.4,0.9,1.6,1.7,2.5,1.9l7.6,1.2
			c1,0.2,1,0.6,0.1,1L54.5,44.5z"/>
	</g>
	<g>
		<path class="st0" d="M48.8,63.4c0.2-1.2,1.1-1.5,2-0.8l15,12c0.9,0.7,0.7,1.2-0.5,1.1l-8.8-1c-1.2-0.1-2.8,0.5-3.6,1.4l-6,6.8
			c-0.8,0.9-1.3,0.7-1.1-0.5L48.8,63.4c0.2-1.2,1.1-1.5,2-0.8l15,12c0.9,0.7,0.7,1.2-0.5,1.1l-8.6-1c-1.2-0.1-2.8,0.5-3.6,1.3
			L47,82.9c-0.8,0.9-1.3,0.6-1.1-0.5L48.8,63.4z"/>
	</g>
	<g>
		<path class="st0" d="M32.8,49.9c0.7,0.6,0.6,1.4-0.3,1.7l-14.5,5.5c-0.9,0.3-1.1,0-0.6-0.8l4.3-5.7c0.6-0.8,0.8-2.1,0.5-3l-2.3-7
			c-0.3-0.9,0.1-1.2,0.8-0.6L32.8,49.9c0.7,0.6,0.6,1.4-0.3,1.7l-14.5,5.5c-0.9,0.3-1.1,0-0.6-0.8l4.2-5.5c0.6-0.8,0.8-2.1,0.5-3
			L20,40.7c-0.3-0.9,0.1-1.2,0.8-0.6L32.8,49.9z"/>
	</g>
</g>
<g>
	<g>
		<path class="st1" d="M38.7,58.8c1-0.4,1.7,0.2,1.5,1.3l-2.9,17.6c-0.2,1.1-0.7,1.1-1.1,0.1l-3.1-7.5c-0.4-1-1.6-2-2.7-2.3
			l-8.3-1.8C21,66,21,65.5,22,65.1L38.7,58.8c1-0.4,1.7,0.2,1.5,1.3l-2.9,17.6c-0.2,1.1-0.7,1.1-1.1,0.1l-3-7.4
			c-0.4-1-1.6-2-2.7-2.3l-8.4-1.9C21,66,21,65.5,22,65.1L38.7,58.8z"/>
	</g>
	<g>
		<path class="st1" d="M44.2,43.9c-0.2,1.5-1.4,2-2.6,1L22.1,29.3c-1.2-1-0.9-1.6,0.6-1.4l11.3,1.3c1.5,0.2,3.6-0.6,4.6-1.8l7.9-8.8
			c1-1.1,1.7-0.8,1.4,0.7L44.2,43.9c-0.2,1.5-1.4,2-2.6,1L22.1,29.3c-1.2-1-0.9-1.6,0.6-1.4l11.1,1.4c1.5,0.2,3.6-0.6,4.6-1.7l8.1-9
			c1-1.1,1.7-0.8,1.4,0.7L44.2,43.9z"/>
	</g>
	<g>
		<path class="st1" d="M57.8,55.2c-0.7-0.6-0.6-1.3,0.3-1.6l14.2-4.9c0.9-0.3,1.1,0,0.5,0.8l-4.3,5.4c-0.6,0.7-0.8,2-0.6,2.9l2,6.9
			c0.3,0.9-0.1,1.1-0.8,0.5L57.8,55.2c-0.7-0.6-0.6-1.3,0.3-1.6l14.2-4.9c0.9-0.3,1.1,0,0.5,0.8l-4.3,5.2c-0.6,0.7-0.9,2-0.6,2.9
			l2,7c0.3,0.9-0.1,1.1-0.8,0.5L57.8,55.2z"/>
	</g>
</g>
<g>
	<path class="st2" d="M109.9,59.7c0,1.8-0.5,3.5-1.4,4.9c-0.9,1.5-2.3,2.6-4.1,3.4c-1.8,0.8-4,1.2-6.5,1.2c-3,0-5.5-0.6-7.4-1.7
		c-1.4-0.8-2.5-1.9-3.4-3.3c-0.9-1.4-1.3-2.7-1.3-4c0-0.7,0.3-1.4,0.8-1.9c0.5-0.5,1.2-0.8,2-0.8c0.6,0,1.2,0.2,1.6,0.6
		c0.4,0.4,0.8,1,1.1,1.8c0.4,1,0.8,1.8,1.3,2.4c0.4,0.6,1.1,1.2,1.9,1.6c0.8,0.4,1.9,0.6,3.2,0.6c1.8,0,3.3-0.4,4.4-1.3
		c1.1-0.9,1.7-1.9,1.7-3.2c0-1-0.3-1.8-0.9-2.5c-0.6-0.6-1.4-1.1-2.4-1.4c-1-0.3-2.3-0.7-3.9-1.1c-2.2-0.5-4-1.1-5.5-1.8
		c-1.5-0.7-2.6-1.6-3.5-2.8c-0.9-1.2-1.3-2.6-1.3-4.4c0-1.7,0.5-3.2,1.4-4.4c0.9-1.3,2.2-2.3,3.9-3c1.7-0.7,3.8-1,6.1-1
		c1.9,0,3.5,0.2,4.8,0.7c1.4,0.5,2.5,1.1,3.4,1.8c0.9,0.8,1.5,1.6,2,2.4c0.4,0.8,0.6,1.7,0.6,2.5c0,0.7-0.3,1.4-0.8,2
		c-0.5,0.6-1.2,0.9-1.9,0.9c-0.7,0-1.2-0.2-1.6-0.5c-0.4-0.4-0.8-0.9-1.2-1.7c-0.6-1.1-1.2-2-2-2.7c-0.8-0.6-2-1-3.7-1
		c-1.6,0-2.9,0.3-3.8,1c-1,0.7-1.5,1.5-1.5,2.5c0,0.6,0.2,1.1,0.5,1.6c0.3,0.4,0.8,0.8,1.4,1.1c0.6,0.3,1.2,0.6,1.8,0.7
		c0.6,0.2,1.6,0.4,2.9,0.8c1.7,0.4,3.3,0.8,4.6,1.3c1.4,0.5,2.6,1.1,3.5,1.8c1,0.7,1.7,1.6,2.3,2.6
		C109.6,56.8,109.9,58.1,109.9,59.7z"/>
	<path class="st2" d="M123.1,41.6l11.8,17.9v-18c0-1.2,0.2-2.1,0.8-2.6c0.5-0.6,1.2-0.9,2-0.9c0.9,0,1.6,0.3,2.1,0.9
		c0.5,0.6,0.8,1.5,0.8,2.6v23.8c0,2.7-1.1,4-3.3,4c-0.6,0-1.1-0.1-1.5-0.2c-0.4-0.2-0.9-0.4-1.2-0.8c-0.4-0.3-0.7-0.7-1.1-1.2
		c-0.3-0.5-0.7-0.9-1-1.4L120.9,48v17.8c0,1.2-0.3,2-0.8,2.6c-0.5,0.6-1.2,0.9-2.1,0.9c-0.9,0-1.6-0.3-2.1-0.9
		c-0.5-0.6-0.8-1.5-0.8-2.6V42.4c0-1,0.1-1.8,0.3-2.3c0.3-0.6,0.7-1.1,1.3-1.5c0.6-0.4,1.3-0.6,2-0.6c0.6,0,1,0.1,1.4,0.3
		c0.4,0.2,0.7,0.4,1,0.7c0.3,0.3,0.6,0.7,0.9,1.2C122.4,40.6,122.7,41.1,123.1,41.6z"/>
	<path class="st2" d="M160.6,37.9c3.1,0,5.8,0.6,8.1,1.9c2.3,1.3,4,3.1,5.1,5.4c1.2,2.4,1.7,5.1,1.7,8.3c0,2.3-0.3,4.5-1,6.4
		c-0.6,1.9-1.6,3.6-2.9,5c-1.3,1.4-2.8,2.5-4.7,3.2c-1.8,0.7-4,1.1-6.3,1.1c-2.4,0-4.5-0.4-6.4-1.1c-1.9-0.8-3.4-1.8-4.7-3.2
		c-1.3-1.4-2.2-3.1-2.8-5c-0.6-2-1-4.1-1-6.4c0-2.3,0.3-4.5,1-6.4c0.7-1.9,1.6-3.6,2.9-5c1.3-1.4,2.8-2.4,4.6-3.1
		C156.2,38.3,158.3,37.9,160.6,37.9z M169.3,53.5c0-2.2-0.4-4.1-1.1-5.8c-0.7-1.6-1.7-2.9-3.1-3.7c-1.3-0.8-2.9-1.3-4.6-1.3
		c-1.2,0-2.4,0.2-3.4,0.7c-1,0.5-1.9,1.1-2.7,2c-0.8,0.9-1.3,2-1.8,3.4c-0.4,1.4-0.7,2.9-0.7,4.6c0,1.7,0.2,3.3,0.7,4.7
		c0.4,1.4,1.1,2.6,1.8,3.5c0.8,0.9,1.7,1.6,2.7,2.1c1,0.5,2.2,0.7,3.4,0.7c1.6,0,3-0.4,4.3-1.2c1.3-0.8,2.4-2,3.1-3.6
		C168.9,57.9,169.3,55.9,169.3,53.5z"/>
	<path class="st2" d="M202.8,64l-4.9-18.2l-5,18.2c-0.4,1.4-0.7,2.4-0.9,3c-0.2,0.6-0.6,1.1-1.2,1.6c-0.6,0.5-1.3,0.7-2.3,0.7
		c-0.8,0-1.4-0.1-1.9-0.4c-0.5-0.3-0.9-0.7-1.2-1.2c-0.3-0.5-0.5-1.1-0.7-1.8c-0.2-0.7-0.4-1.4-0.5-2l-5.1-20.4
		c-0.3-1.2-0.5-2.1-0.5-2.7c0-0.8,0.3-1.4,0.8-2c0.6-0.5,1.2-0.8,2-0.8c1.1,0,1.9,0.4,2.3,1.1c0.4,0.7,0.7,1.8,1,3.1l4,17.7
		l4.4-16.6c0.3-1.3,0.6-2.2,0.9-2.9c0.3-0.7,0.7-1.2,1.3-1.7c0.6-0.5,1.4-0.7,2.4-0.7c1,0,1.8,0.3,2.4,0.8c0.6,0.5,1,1.1,1.2,1.6
		c0.2,0.6,0.5,1.6,0.9,2.9l4.5,16.6l4-17.7c0.2-0.9,0.4-1.7,0.5-2.2c0.2-0.5,0.5-1,0.9-1.4c0.4-0.4,1-0.6,1.8-0.6
		c0.8,0,1.5,0.3,2,0.8c0.6,0.5,0.8,1.2,0.8,2c0,0.6-0.1,1.5-0.5,2.7l-5,20.4c-0.3,1.4-0.6,2.4-0.9,3c-0.2,0.6-0.6,1.2-1.2,1.7
		c-0.5,0.5-1.3,0.7-2.3,0.7c-0.9,0-1.7-0.2-2.3-0.7c-0.6-0.5-1-1-1.2-1.6C203.5,66.4,203.2,65.4,202.8,64z"/>
</g>
<path class="st2" d="M88.2,103.3V86.1h3.5v17.2H88.2z"/>
<path class="st2" d="M107.1,103.3h-3.3v-6.4c0-1.3-0.1-2.2-0.2-2.6s-0.4-0.7-0.7-0.9s-0.7-0.3-1.1-0.3c-0.6,0-1.1,0.2-1.5,0.5
	s-0.8,0.7-0.9,1.2s-0.3,1.5-0.3,2.9v5.6h-3.3V90.8h3.1v1.8c1.1-1.4,2.5-2.1,4.1-2.1c0.7,0,1.4,0.1,2,0.4s1.1,0.6,1.4,1
	s0.5,0.9,0.6,1.4s0.2,1.3,0.2,2.2V103.3z"/>
<path class="st2" d="M122.2,94.5l-3.2,0.6c-0.1-0.6-0.4-1.1-0.7-1.5s-0.9-0.5-1.5-0.5c-0.8,0-1.5,0.3-2,0.8s-0.7,1.5-0.7,2.8
	c0,1.5,0.2,2.5,0.7,3.1s1.2,0.9,2,0.9c0.6,0,1.1-0.2,1.5-0.5s0.7-1,0.8-1.8l3.2,0.6c-0.3,1.5-1,2.6-1.9,3.4s-2.2,1.1-3.8,1.1
	c-1.8,0-3.3-0.6-4.4-1.7s-1.6-2.7-1.6-4.8c0-2.1,0.5-3.7,1.6-4.8s2.6-1.7,4.4-1.7c1.5,0,2.7,0.3,3.6,1S121.8,93.2,122.2,94.5z"/>
<path class="st2" d="M125.6,103.3V86.1h3.3v17.2H125.6z"/>
<path class="st2" d="M141.3,103.3v-1.9c-0.5,0.7-1,1.2-1.8,1.6s-1.5,0.6-2.3,0.6c-0.8,0-1.6-0.2-2.2-0.6s-1.1-0.9-1.4-1.5
	s-0.4-1.6-0.4-2.8v-7.9h3.3v5.7c0,1.8,0.1,2.8,0.2,3.2s0.3,0.7,0.7,0.9s0.7,0.3,1.2,0.3c0.6,0,1.1-0.2,1.5-0.5s0.8-0.7,0.9-1.1
	s0.2-1.6,0.2-3.4v-5.2h3.3v12.4H141.3z"/>
<path class="st2" d="M147.5,99.7l3.3-0.5c0.1,0.6,0.4,1.1,0.9,1.5s1,0.5,1.8,0.5c0.9,0,1.5-0.2,1.9-0.5c0.3-0.2,0.4-0.5,0.4-0.9
	c0-0.2-0.1-0.5-0.2-0.6c-0.2-0.2-0.5-0.3-1.1-0.4c-2.7-0.6-4.3-1.1-5.1-1.6c-1-0.7-1.5-1.6-1.5-2.8c0-1.1,0.4-2,1.3-2.7
	s2.2-1.1,4-1.1c1.7,0,3,0.3,3.8,0.8s1.4,1.4,1.7,2.5l-3.1,0.6c-0.1-0.5-0.4-0.9-0.8-1.1s-0.9-0.4-1.6-0.4c-0.9,0-1.5,0.1-1.9,0.4
	c-0.2,0.2-0.4,0.4-0.4,0.7c0,0.2,0.1,0.4,0.3,0.6c0.3,0.2,1.3,0.5,3.1,0.9s3,0.9,3.7,1.5c0.7,0.6,1,1.4,1,2.4c0,1.1-0.5,2.1-1.4,2.9
	s-2.4,1.2-4.2,1.2c-1.7,0-3-0.3-4-1S147.8,100.9,147.5,99.7z"/>
<path class="st2" d="M162.9,89.2v-3h3.3v3H162.9z M162.9,103.3V90.8h3.3v12.4H162.9z"/>
<path class="st2" d="M173.9,103.3l-5-12.4h3.5l2.3,6.4l0.7,2.1c0.2-0.5,0.3-0.9,0.3-1.1c0.1-0.4,0.2-0.7,0.4-1.1l2.4-6.4h3.4
	l-4.9,12.4H173.9z"/>
<path class="st2" d="M191.9,99.3l3.3,0.6c-0.4,1.2-1.1,2.1-2,2.7s-2,0.9-3.4,0.9c-2.2,0-3.8-0.7-4.8-2.1c-0.8-1.1-1.2-2.6-1.2-4.3
	c0-2.1,0.5-3.7,1.6-4.8s2.4-1.8,4.1-1.8c1.9,0,3.3,0.6,4.4,1.8s1.6,3.1,1.5,5.6h-8.2c0,1,0.3,1.7,0.8,2.3s1.1,0.8,1.9,0.8
	c0.5,0,0.9-0.1,1.3-0.4S191.7,100,191.9,99.3z M192.1,96c0-1-0.3-1.7-0.7-2.2s-1-0.7-1.7-0.7c-0.7,0-1.3,0.3-1.8,0.8
	s-0.7,1.2-0.7,2.1H192.1z"/>
<path class="st2" d="M206.6,103.3v-17h3.5v14.1h8.6v2.9H206.6z"/>
<path class="st2" d="M229.3,99.3l3.3,0.6c-0.4,1.2-1.1,2.1-2,2.7s-2,0.9-3.4,0.9c-2.2,0-3.8-0.7-4.8-2.1c-0.8-1.1-1.2-2.6-1.2-4.3
	c0-2.1,0.5-3.7,1.6-4.8s2.4-1.8,4.1-1.8c1.9,0,3.3,0.6,4.4,1.8s1.6,3.1,1.5,5.6h-8.2c0,1,0.3,1.7,0.8,2.3s1.1,0.8,1.9,0.8
	c0.5,0,0.9-0.1,1.3-0.4S229.1,100,229.3,99.3z M229.4,96c0-1-0.3-1.7-0.7-2.2s-1-0.7-1.7-0.7c-0.7,0-1.3,0.3-1.8,0.8
	s-0.7,1.2-0.7,2.1H229.4z"/>
<path class="st2" d="M238.7,94.6l-3-0.5c0.3-1.2,0.9-2.1,1.7-2.7s2-0.9,3.7-0.9c1.5,0,2.6,0.2,3.3,0.5s1.2,0.8,1.5,1.3
	s0.4,1.5,0.4,2.9l0,3.8c0,1.1,0.1,1.9,0.2,2.4s0.3,1.1,0.6,1.7h-3.3c-0.1-0.2-0.2-0.5-0.3-1c-0.1-0.2-0.1-0.3-0.1-0.4
	c-0.6,0.5-1.2,1-1.8,1.2s-1.3,0.4-2.1,0.4c-1.3,0-2.3-0.3-3-1s-1.1-1.6-1.1-2.6c0-0.7,0.2-1.3,0.5-1.9s0.8-1,1.4-1.3
	s1.5-0.5,2.6-0.8c1.5-0.3,2.6-0.6,3.2-0.8v-0.3c0-0.6-0.2-1.1-0.5-1.4s-0.9-0.4-1.8-0.4c-0.6,0-1,0.1-1.4,0.3S238.9,94.1,238.7,94.6
	z M243.2,97.3c-0.4,0.1-1.1,0.3-2,0.5s-1.5,0.4-1.8,0.6c-0.4,0.3-0.6,0.7-0.6,1.2c0,0.5,0.2,0.9,0.5,1.2s0.8,0.5,1.3,0.5
	c0.6,0,1.2-0.2,1.7-0.6c0.4-0.3,0.7-0.7,0.8-1.1c0.1-0.3,0.1-0.8,0.1-1.6V97.3z"/>
<path class="st2" d="M253.7,103.3h-3.3V90.8h3.1v1.8c0.5-0.8,1-1.4,1.4-1.7s0.9-0.4,1.4-0.4c0.8,0,1.5,0.2,2.2,0.6l-1,2.9
	c-0.6-0.4-1.1-0.5-1.5-0.5c-0.5,0-0.9,0.1-1.2,0.4s-0.6,0.7-0.8,1.4s-0.3,2.1-0.3,4.2V103.3z"/>
<path class="st2" d="M272.1,103.3h-3.3v-6.4c0-1.3-0.1-2.2-0.2-2.6s-0.4-0.7-0.7-0.9s-0.7-0.3-1.1-0.3c-0.6,0-1.1,0.2-1.5,0.5
	s-0.8,0.7-0.9,1.2s-0.3,1.5-0.3,2.9v5.6h-3.3V90.8h3.1v1.8c1.1-1.4,2.5-2.1,4.1-2.1c0.7,0,1.4,0.1,2,0.4s1.1,0.6,1.4,1
	s0.5,0.9,0.6,1.4s0.2,1.3,0.2,2.2V103.3z"/>
<path class="st2" d="M276.3,89.2v-3h3.3v3H276.3z M276.3,103.3V90.8h3.3v12.4H276.3z"/>
<path class="st2" d="M295.2,103.3h-3.3v-6.4c0-1.3-0.1-2.2-0.2-2.6s-0.4-0.7-0.7-0.9s-0.7-0.3-1.1-0.3c-0.6,0-1.1,0.2-1.5,0.5
	s-0.8,0.7-0.9,1.2s-0.3,1.5-0.3,2.9v5.6h-3.3V90.8h3.1v1.8c1.1-1.4,2.5-2.1,4.1-2.1c0.7,0,1.4,0.1,2,0.4s1.1,0.6,1.4,1
	s0.5,0.9,0.6,1.4s0.2,1.3,0.2,2.2V103.3z"/>
<path class="st2" d="M299.1,104.1l3.8,0.5c0.1,0.4,0.2,0.7,0.4,0.9c0.3,0.2,0.8,0.4,1.5,0.4c0.9,0,1.5-0.1,1.9-0.4
	c0.3-0.2,0.5-0.4,0.7-0.8c0.1-0.3,0.2-0.8,0.2-1.5v-1.8c-1,1.3-2.2,2-3.7,2c-1.7,0-3-0.7-4-2.1c-0.8-1.1-1.1-2.5-1.1-4.2
	c0-2.1,0.5-3.7,1.5-4.8s2.3-1.7,3.7-1.7c1.5,0,2.8,0.7,3.8,2v-1.7h3.1V102c0,1.5-0.1,2.6-0.4,3.3s-0.6,1.3-1,1.7s-1,0.7-1.8,1
	s-1.7,0.4-2.8,0.4c-2.1,0-3.6-0.4-4.5-1.1s-1.3-1.6-1.3-2.7C299.1,104.4,299.1,104.3,299.1,104.1z M302,96.8c0,1.3,0.3,2.3,0.8,2.9
	s1.1,0.9,1.9,0.9c0.8,0,1.5-0.3,2-0.9s0.8-1.6,0.8-2.8c0-1.3-0.3-2.2-0.8-2.9s-1.2-0.9-2-0.9c-0.8,0-1.4,0.3-2,0.9
	S302,95.6,302,96.8z"/>
<path class="st2" d="M337.7,101.2l-2,2.5c-1-0.5-1.9-1.1-2.8-2c-0.7,0.6-1.4,1.1-2.2,1.4s-1.7,0.4-2.8,0.4c-2.1,0-3.8-0.6-4.8-1.8
	c-0.8-0.9-1.3-2-1.3-3.2c0-1.1,0.3-2.1,1-3s1.6-1.6,2.9-2.3c-0.6-0.7-1-1.4-1.3-2s-0.4-1.2-0.4-1.8c0-1,0.4-1.9,1.2-2.6
	s2-1.1,3.6-1.1c1.5,0,2.6,0.4,3.5,1.1s1.3,1.7,1.3,2.8c0,0.7-0.2,1.4-0.6,2s-1.2,1.3-2.5,2.1l2.4,3.2c0.3-0.5,0.5-1.2,0.7-2l3,0.7
	c-0.3,1.1-0.6,1.8-0.8,2.3s-0.5,0.9-0.7,1.2c0.4,0.3,0.8,0.7,1.4,1.1S337.5,101.1,337.7,101.2z M327.5,95.4
	c-0.8,0.4-1.3,0.8-1.7,1.4s-0.6,1.1-0.6,1.7c0,0.7,0.2,1.3,0.7,1.7s1.1,0.7,1.9,0.7c0.5,0,1-0.1,1.5-0.3s1-0.5,1.6-1L327.5,95.4z
	 M328.8,91.9l0.9-0.7c0.7-0.5,1-1,1-1.5c0-0.4-0.2-0.8-0.5-1.1s-0.7-0.4-1.3-0.4c-0.5,0-0.9,0.1-1.2,0.4s-0.4,0.6-0.4,0.9
	c0,0.4,0.2,0.9,0.8,1.5L328.8,91.9z"/>
<path class="st2" d="M348.3,103.3V86.1H361V89h-9.3v3.8h8.6v2.9h-8.6v4.7h9.6v2.9H348.3z"/>
<path class="st2" d="M376.6,103.3h-3.1v-1.8c-0.5,0.7-1.1,1.2-1.8,1.6s-1.4,0.5-2.1,0.5c-1.4,0-2.7-0.6-3.7-1.7s-1.5-2.8-1.5-4.8
	c0-2.1,0.5-3.7,1.5-4.8s2.2-1.6,3.8-1.6c1.4,0,2.6,0.6,3.6,1.7v-6.2h3.3V103.3z M367.8,96.8c0,1.3,0.2,2.3,0.6,2.9
	c0.5,0.9,1.3,1.3,2.2,1.3c0.8,0,1.4-0.3,1.9-1s0.8-1.6,0.8-2.9c0-1.4-0.3-2.5-0.8-3.1s-1.2-0.9-2-0.9c-0.8,0-1.4,0.3-2,0.9
	S367.8,95.6,367.8,96.8z"/>
<path class="st2" d="M388.9,103.3v-1.9c-0.5,0.7-1,1.2-1.8,1.6s-1.5,0.6-2.3,0.6c-0.8,0-1.6-0.2-2.2-0.6s-1.1-0.9-1.4-1.5
	s-0.4-1.6-0.4-2.8v-7.9h3.3v5.7c0,1.8,0.1,2.8,0.2,3.2s0.3,0.7,0.7,0.9s0.7,0.3,1.2,0.3c0.6,0,1.1-0.2,1.5-0.5s0.8-0.7,0.9-1.1
	s0.2-1.6,0.2-3.4v-5.2h3.3v12.4H388.9z"/>
<path class="st2" d="M407.1,94.5l-3.2,0.6c-0.1-0.6-0.4-1.1-0.7-1.5s-0.9-0.5-1.5-0.5c-0.8,0-1.5,0.3-2,0.8s-0.7,1.5-0.7,2.8
	c0,1.5,0.2,2.5,0.7,3.1s1.2,0.9,2,0.9c0.6,0,1.1-0.2,1.5-0.5s0.7-1,0.8-1.8l3.2,0.6c-0.3,1.5-1,2.6-1.9,3.4s-2.2,1.1-3.8,1.1
	c-1.8,0-3.3-0.6-4.4-1.7s-1.6-2.7-1.6-4.8c0-2.1,0.5-3.7,1.6-4.8s2.6-1.7,4.4-1.7c1.5,0,2.7,0.3,3.6,1S406.7,93.2,407.1,94.5z"/>
<path class="st2" d="M413,94.6l-3-0.5c0.3-1.2,0.9-2.1,1.7-2.7s2-0.9,3.7-0.9c1.5,0,2.6,0.2,3.3,0.5s1.2,0.8,1.5,1.3
	s0.4,1.5,0.4,2.9l0,3.8c0,1.1,0.1,1.9,0.2,2.4s0.3,1.1,0.6,1.7h-3.3c-0.1-0.2-0.2-0.5-0.3-1c-0.1-0.2-0.1-0.3-0.1-0.4
	c-0.6,0.5-1.2,1-1.8,1.2s-1.3,0.4-2.1,0.4c-1.3,0-2.3-0.3-3-1s-1.1-1.6-1.1-2.6c0-0.7,0.2-1.3,0.5-1.9s0.8-1,1.4-1.3
	s1.5-0.5,2.6-0.8c1.5-0.3,2.6-0.6,3.2-0.8v-0.3c0-0.6-0.2-1.1-0.5-1.4s-0.9-0.4-1.8-0.4c-0.6,0-1,0.1-1.4,0.3S413.2,94.1,413,94.6z
	 M417.4,97.3c-0.4,0.1-1.1,0.3-2,0.5s-1.5,0.4-1.8,0.6c-0.4,0.3-0.6,0.7-0.6,1.2c0,0.5,0.2,0.9,0.5,1.2s0.8,0.5,1.3,0.5
	c0.6,0,1.2-0.2,1.7-0.6c0.4-0.3,0.7-0.7,0.8-1.1c0.1-0.3,0.1-0.8,0.1-1.6V97.3z"/>
<path class="st2" d="M430.5,90.8v2.6h-2.2v5c0,1,0,1.6,0.1,1.8s0.1,0.3,0.3,0.4s0.3,0.2,0.6,0.2c0.3,0,0.7-0.1,1.3-0.3l0.3,2.6
	c-0.8,0.3-1.6,0.5-2.6,0.5c-0.6,0-1.1-0.1-1.6-0.3s-0.8-0.5-1-0.8s-0.4-0.7-0.5-1.3c-0.1-0.4-0.1-1.2-0.1-2.3v-5.4h-1.5v-2.6h1.5
	v-2.5l3.3-1.9v4.4H430.5z"/>
<path class="st2" d="M433.6,89.2v-3h3.3v3H433.6z M433.6,103.3V90.8h3.3v12.4H433.6z"/>
<path class="st2" d="M440.4,96.9c0-1.1,0.3-2.2,0.8-3.2s1.3-1.8,2.3-2.3s2.1-0.8,3.3-0.8c1.9,0,3.4,0.6,4.6,1.8s1.8,2.8,1.8,4.6
	c0,1.9-0.6,3.4-1.8,4.7s-2.7,1.9-4.6,1.9c-1.1,0-2.2-0.3-3.3-0.8s-1.8-1.3-2.4-2.3S440.4,98.3,440.4,96.9z M443.8,97.1
	c0,1.2,0.3,2.2,0.9,2.8s1.3,1,2.2,1s1.6-0.3,2.2-1s0.9-1.6,0.9-2.9c0-1.2-0.3-2.2-0.9-2.8s-1.3-1-2.2-1s-1.6,0.3-2.2,1
	S443.8,95.8,443.8,97.1z"/>
<path class="st2" d="M468,103.3h-3.3v-6.4c0-1.3-0.1-2.2-0.2-2.6s-0.4-0.7-0.7-0.9s-0.7-0.3-1.1-0.3c-0.6,0-1.1,0.2-1.5,0.5
	s-0.8,0.7-0.9,1.2s-0.3,1.5-0.3,2.9v5.6h-3.3V90.8h3.1v1.8c1.1-1.4,2.5-2.1,4.1-2.1c0.7,0,1.4,0.1,2,0.4s1.1,0.6,1.4,1
	s0.5,0.9,0.6,1.4s0.2,1.3,0.2,2.2V103.3z"/>
</svg>
