<svg id="Layer_1" data-name="Layer 1" xmlns="http://www.w3.org/2000/svg" viewBox="0 0 197.79 65.52"><defs><style>.cls-1{fill:#fff200;}</style></defs><title>logo-YELLOW</title><path class="cls-1" d="M38,28c-.89.4-1.53-.07-1.44-1l1.62-15.81c.09-1,.53-1.05,1-.18l3.22,6.52a3.78,3.78,0,0,0,2.54,1.86l7.47,1.15c1,.14,1,.59.13,1L38,28c-.89.4-1.53-.07-1.44-1l1.62-15.81c.09-1,.52-1.05,1-.17l3.12,6.42a3.8,3.8,0,0,0,2.53,1.87l7.59,1.22c1,.15,1,.6.13,1Z" transform="translate(-0.74 -1.38)"/><path class="cls-1" d="M32.33,46.83c.18-1.17,1.07-1.52,2-.78l15,12c.93.74.72,1.23-.45,1.1l-8.75-1a4.67,4.67,0,0,0-3.56,1.37l-6.05,6.84c-.78.89-1.27.65-1.1-.51l2.88-19c.18-1.17,1.07-1.52,2-.78l15,12c.93.74.72,1.22-.45,1.08l-8.57-1a4.64,4.64,0,0,0-3.56,1.35l-6.21,6.93c-.79.88-1.29.64-1.12-.52Z" transform="translate(-0.74 -1.38)"/><path class="cls-1" d="M16.37,33.37a.91.91,0,0,1-.27,1.71L1.62,40.61c-.89.34-1.15,0-.58-.76l4.27-5.67a3.77,3.77,0,0,0,.51-3l-2.28-7c-.3-.91.07-1.16.8-.56l12,9.78a.91.91,0,0,1-.27,1.71L1.62,40.61c-.89.34-1.15,0-.57-.76l4.23-5.53a3.72,3.72,0,0,0,.52-3L3.53,24.15c-.29-.91.08-1.16.81-.56Z" transform="translate(-0.74 -1.38)"/><path class="cls-1" d="M22.23,42.28c1-.38,1.72.19,1.54,1.26l-2.9,17.59c-.18,1.08-.67,1.13-1.09.12l-3.15-7.51a4.28,4.28,0,0,0-2.71-2.26L5.64,49.69c-1.06-.23-1.1-.74-.08-1.12l16.67-6.29c1-.38,1.72.19,1.54,1.26l-2.9,17.59c-.18,1.08-.66,1.13-1.08.12l-3-7.4a4.29,4.29,0,0,0-2.69-2.27L5.64,49.7c-1.06-.24-1.1-.75-.08-1.13Z" transform="translate(-0.74 -1.38)"/><path class="cls-1" d="M27.7,27.39c-.23,1.51-1.4,2-2.6,1L5.66,12.78c-1.19-1-.93-1.6.59-1.42l11.34,1.32a6,6,0,0,0,4.61-1.75l7.88-8.85c1-1.14,1.66-.84,1.42.67L27.7,27.39c-.23,1.51-1.4,2-2.6,1L5.66,12.78c-1.19-1-.93-1.59.59-1.4l11.11,1.38A6,6,0,0,0,22,11l8.07-9c1-1.14,1.68-.83,1.44.68Z" transform="translate(-0.74 -1.38)"/><path class="cls-1" d="M41.34,38.7a.89.89,0,0,1,.32-1.65l14.21-4.91c.87-.3,1.11,0,.53.76l-4.31,5.36a3.6,3.6,0,0,0-.59,2.91l2,6.86c.26.89-.1,1.12-.8.51L41.34,38.7a.89.89,0,0,1,.32-1.65l14.21-4.91c.87-.3,1.11,0,.52.75l-4.26,5.23A3.59,3.59,0,0,0,51.52,41l2,7c.25.89-.11,1.12-.81.51Z" transform="translate(-0.74 -1.38)"/><path class="cls-1" d="M91.4,43.13A9,9,0,0,1,90,48.08a9.45,9.45,0,0,1-4.14,3.43,15.54,15.54,0,0,1-6.48,1.24A14.61,14.61,0,0,1,72,51.05a10,10,0,0,1-3.36-3.25,7.41,7.41,0,0,1-1.29-4,2.64,2.64,0,0,1,.78-1.92,2.61,2.61,0,0,1,2-.79,2.28,2.28,0,0,1,1.64.62,4.81,4.81,0,0,1,1.15,1.84A12.62,12.62,0,0,0,74.09,46a5.21,5.21,0,0,0,1.9,1.6,7,7,0,0,0,3.2.63A7.24,7.24,0,0,0,83.63,47a3.83,3.83,0,0,0,1.71-3.18,3.35,3.35,0,0,0-.93-2.45A6,6,0,0,0,82,39.9c-1-.33-2.27-.68-3.91-1a28.88,28.88,0,0,1-5.46-1.79,8.8,8.8,0,0,1-3.5-2.79,7.28,7.28,0,0,1-1.29-4.4,7.58,7.58,0,0,1,1.36-4.44,8.56,8.56,0,0,1,4-3,16.16,16.16,0,0,1,6.08-1.05,15.14,15.14,0,0,1,4.84.69,10.38,10.38,0,0,1,3.38,1.84,7.63,7.63,0,0,1,2,2.41,5.46,5.46,0,0,1,.62,2.46,2.94,2.94,0,0,1-.77,2,2.48,2.48,0,0,1-1.94.88,2.19,2.19,0,0,1-1.6-.53,7.15,7.15,0,0,1-1.19-1.72,7.91,7.91,0,0,0-2-2.69,5.85,5.85,0,0,0-3.73-1A6.44,6.44,0,0,0,75,26.8a3,3,0,0,0-1.45,2.51,2.53,2.53,0,0,0,.49,1.57A4.12,4.12,0,0,0,75.43,32a9,9,0,0,0,1.76.75c.59.18,1.57.44,2.93.78,1.71.4,3.26.85,4.65,1.32a14.36,14.36,0,0,1,3.53,1.76,7.18,7.18,0,0,1,2.28,2.62A8.34,8.34,0,0,1,91.4,43.13Z" transform="translate(-0.74 -1.38)"/><path class="cls-1" d="M104.62,25.07,116.43,43V24.9a4,4,0,0,1,.75-2.63,2.56,2.56,0,0,1,2-.88,2.62,2.62,0,0,1,2.09.88,3.91,3.91,0,0,1,.77,2.63V48.75c0,2.67-1.11,4-3.31,4a4.31,4.31,0,0,1-1.49-.24,3.59,3.59,0,0,1-1.24-.76,7,7,0,0,1-1.08-1.2l-1-1.42L102.45,31.46V49.23a3.8,3.8,0,0,1-.81,2.63,2.69,2.69,0,0,1-2.07.89,2.63,2.63,0,0,1-2.09-.9,3.89,3.89,0,0,1-.79-2.62V25.84A6.61,6.61,0,0,1,97,23.5,3.31,3.31,0,0,1,98.33,22a3.55,3.55,0,0,1,2-.59,3.36,3.36,0,0,1,1.42.27,3.41,3.41,0,0,1,1,.72,7.23,7.23,0,0,1,.91,1.18Z" transform="translate(-0.74 -1.38)"/><path class="cls-1" d="M142.14,21.39a16.26,16.26,0,0,1,8.1,1.91,12.47,12.47,0,0,1,5.12,5.44A18.68,18.68,0,0,1,157.09,37a20.12,20.12,0,0,1-1,6.39,13.76,13.76,0,0,1-2.85,5,12.49,12.49,0,0,1-4.68,3.22,18.39,18.39,0,0,1-12.72,0,12.58,12.58,0,0,1-4.69-3.23,14,14,0,0,1-2.85-5,20.36,20.36,0,0,1-1-6.35,19.38,19.38,0,0,1,1-6.42,13.58,13.58,0,0,1,2.9-5,12.68,12.68,0,0,1,4.64-3.14A16.68,16.68,0,0,1,142.14,21.39ZM150.87,37a14.15,14.15,0,0,0-1.08-5.77,8,8,0,0,0-3.07-3.7,8.48,8.48,0,0,0-4.58-1.25,8.15,8.15,0,0,0-3.4.7,7.47,7.47,0,0,0-2.69,2,9.5,9.5,0,0,0-1.78,3.38,15.15,15.15,0,0,0-.65,4.63,15.46,15.46,0,0,0,.65,4.67,9.55,9.55,0,0,0,1.84,3.47,7.83,7.83,0,0,0,2.73,2.06,8.62,8.62,0,0,0,7.71-.5,8.17,8.17,0,0,0,3.15-3.64A14.05,14.05,0,0,0,150.87,37Z" transform="translate(-0.74 -1.38)"/><path class="cls-1" d="M184.34,47.45l-4.9-18.18-5,18.18c-.38,1.38-.69,2.37-.92,3A3.87,3.87,0,0,1,172.36,52a3.36,3.36,0,0,1-2.25.72,3.79,3.79,0,0,1-1.88-.42A3.37,3.37,0,0,1,167,51.12a7.93,7.93,0,0,1-.74-1.83q-.28-1.08-.51-2l-5.06-20.42a12,12,0,0,1-.45-2.71,2.7,2.7,0,0,1,.83-2,2.84,2.84,0,0,1,2-.8,2.32,2.32,0,0,1,2.25,1.08,11.8,11.8,0,0,1,1,3.12l4,17.71,4.45-16.58a29.79,29.79,0,0,1,.89-2.89A4.34,4.34,0,0,1,177,22.11a3.78,3.78,0,0,1,2.43-.72,3.57,3.57,0,0,1,2.41.75A4.22,4.22,0,0,1,183,23.79c.22.59.51,1.57.89,2.93l4.49,16.58,4-17.71a21.24,21.24,0,0,1,.54-2.17,3.5,3.5,0,0,1,.9-1.41,2.49,2.49,0,0,1,1.82-.62,2.85,2.85,0,0,1,2,.8,2.62,2.62,0,0,1,.84,2,13,13,0,0,1-.45,2.71L193,47.31c-.35,1.38-.63,2.39-.86,3A4,4,0,0,1,191,52a3.32,3.32,0,0,1-2.31.73,3.46,3.46,0,0,1-2.25-.7,3.77,3.77,0,0,1-1.18-1.59C185.05,49.88,184.74,48.88,184.34,47.45Z" transform="translate(-0.74 -1.38)"/></svg>